<svg width="428" height="68" viewBox="0 0 428 68" fill="none" xmlns="http://www.w3.org/2000/svg">
<path d="M0.0179089 46.1762L11.1073 32.8711L17.0852 49.1273L0.0179089 46.1762ZM130.94 3.0605C130.354 2.47471 130.354 1.52497 130.94 0.939174C131.526 0.35339 132.476 0.3534 133.061 0.93918L132.001 1.99984L130.94 3.0605ZM213.226 44.8899L212.682 43.492C212.733 43.4722 212.785 43.4552 212.837 43.441L213.226 44.8899ZM135.572 3.40859C136.167 3.98461 136.183 4.93422 135.607 5.52962C135.031 6.12501 134.081 6.1407 133.486 5.56468L134.529 4.48664L135.572 3.40859ZM138.648 10.397C138.034 9.8409 137.987 8.89232 138.543 8.27824C139.099 7.66416 140.048 7.61712 140.662 8.17318L139.655 9.28507L138.648 10.397ZM145.84 12.7091C146.472 13.2447 146.55 14.1912 146.014 14.8232C145.479 15.4553 144.532 15.5335 143.9 14.998L144.87 13.8535L145.84 12.7091ZM149.291 19.4147C148.641 18.9003 148.532 17.9569 149.046 17.3075C149.561 16.6581 150.504 16.5487 151.153 17.063L150.222 18.2389L149.291 19.4147ZM156.694 21.3019C157.36 21.7941 157.502 22.7333 157.009 23.3996C156.517 24.066 155.578 24.2072 154.912 23.715L155.803 22.5084L156.694 21.3019ZM160.612 27.78C159.929 27.3103 159.757 26.3764 160.227 25.694C160.696 25.0115 161.63 24.8391 162.313 25.3088L161.462 26.5444L160.612 27.78ZM168.03 29.1055C168.728 29.5523 168.931 30.48 168.484 31.1776C168.037 31.8752 167.11 32.0786 166.412 31.6318L167.221 30.3686L168.03 29.1055ZM172.43 35.3451C171.718 34.922 171.484 34.0016 171.907 33.2894C172.33 32.5772 173.25 32.3428 173.963 32.7659L173.196 34.0555L172.43 35.3451ZM179.96 36.1957C180.685 36.595 180.95 37.5072 180.551 38.233C180.151 38.9588 179.239 39.2235 178.514 38.8241L179.237 37.5099L179.96 36.1957ZM184.675 42.0839C183.936 41.7085 183.642 40.8055 184.017 40.067C184.393 39.3285 185.296 39.0342 186.034 39.4097L185.354 40.7468L184.675 42.0839ZM192.292 42.4633C193.043 42.8144 193.366 43.7073 193.015 44.4576C192.664 45.208 191.771 45.5317 191.021 45.1806L191.657 43.8219L192.292 42.4633ZM197.415 48.0479C196.653 47.721 196.301 46.839 196.628 46.0777C196.955 45.3165 197.837 44.9644 198.598 45.2912L198.006 46.6695L197.415 48.0479ZM204.969 47.9082C205.74 48.2109 206.12 49.0814 205.817 49.8526C205.514 50.6237 204.644 51.0035 203.873 50.7008L204.421 49.3045L204.969 47.9082ZM210.475 53.1736C209.695 52.8952 209.288 52.037 209.567 51.2567C209.845 50.4765 210.703 50.0696 211.484 50.348L210.98 51.7608L210.475 53.1736ZM218.027 52.5701C218.816 52.8245 219.249 53.6699 218.994 54.4583C218.74 55.2467 217.894 55.6796 217.106 55.4252L217.567 53.9977L218.027 52.5701ZM223.793 57.4722C222.998 57.2416 222.54 56.4097 222.77 55.614C223.001 54.8183 223.833 54.3602 224.628 54.5908L224.211 56.0315L223.793 57.4722ZM231.334 56.4264C232.136 56.6333 232.618 57.4513 232.412 58.2535C232.205 59.0557 231.387 59.5382 230.584 59.3313L230.959 57.8789L231.334 56.4264ZM237.381 60.9798C236.574 60.7961 236.068 59.9924 236.251 59.1846C236.435 58.3768 237.239 57.8708 238.047 58.0544L237.714 59.5171L237.381 60.9798ZM244.817 59.4925C245.63 59.6531 246.159 60.4422 245.998 61.2549C245.837 62.0676 245.048 62.5962 244.236 62.4356L244.526 60.964L244.817 59.4925ZM251.152 63.7023C250.335 63.5644 249.785 62.7904 249.923 61.9735C250.06 61.1567 250.834 60.6062 251.651 60.7441L251.402 62.2232L251.152 63.7023ZM258.469 61.7996C259.289 61.9153 259.861 62.674 259.745 63.4943C259.629 64.3146 258.871 64.8859 258.05 64.7703L258.26 63.2849L258.469 61.7996ZM265.021 65.6574C264.197 65.5638 263.606 64.8206 263.7 63.9975C263.793 63.1744 264.536 62.583 265.359 62.6766L265.19 64.167L265.021 65.6574ZM272.265 63.3696C273.09 63.4416 273.701 64.1689 273.629 64.9942C273.557 65.8195 272.83 66.4302 272.004 66.3583L272.135 64.864L272.265 63.3696ZM278.944 66.8733C278.117 66.8225 277.488 66.1111 277.538 65.2842C277.589 64.4573 278.301 63.8282 279.127 63.8789L279.035 65.3761L278.944 66.8733ZM286.101 64.2173C286.929 64.2469 287.576 64.9421 287.546 65.77C287.517 66.5979 286.822 67.245 285.994 67.2154L286.047 65.7164L286.101 64.2173ZM292.989 67.378C292.161 67.369 291.497 66.6902 291.506 65.8619C291.514 65.0335 292.193 64.3692 293.022 64.3781L293.005 65.878L292.989 67.378ZM299.93 64.3674C300.758 64.356 301.439 65.0182 301.45 65.8466C301.462 66.6749 300.799 67.3557 299.971 67.3672L299.95 65.8673L299.93 64.3674ZM307.02 67.183C306.192 67.2148 305.495 66.5695 305.463 65.7416C305.431 64.9138 306.077 64.217 306.904 64.1852L306.962 65.6841L307.02 67.183ZM313.782 63.838C314.608 63.7863 315.321 64.4146 315.372 65.2414C315.424 66.0682 314.796 66.7804 313.969 66.8321L313.875 65.335L313.782 63.838ZM320.994 66.307C320.169 66.3788 319.441 65.7679 319.37 64.9426C319.298 64.1173 319.909 63.3901 320.734 63.3183L320.864 64.8127L320.994 66.307ZM327.637 62.6342C328.46 62.5425 329.202 63.1357 329.294 63.959C329.385 64.7824 328.792 65.5241 327.969 65.6158L327.803 64.125L327.637 62.6342ZM334.876 64.7627C334.055 64.8742 333.299 64.299 333.188 63.4781C333.076 62.6572 333.651 61.9014 334.472 61.79L334.674 63.2764L334.876 64.7627ZM341.398 60.7628C342.216 60.6311 342.985 61.1874 343.117 62.0053C343.249 62.8232 342.693 63.593 341.875 63.7247L341.636 62.2437L341.398 60.7628ZM348.693 62.5411C347.879 62.6928 347.096 62.1556 346.944 61.3412C346.792 60.5267 347.33 59.7435 348.144 59.5918L348.419 61.0664L348.693 62.5411ZM355.029 58.2174C355.84 58.0448 356.636 58.5616 356.809 59.3718C356.982 60.1821 356.465 60.9789 355.655 61.1516L355.342 59.6845L355.029 58.2174ZM362.442 59.6127C361.636 59.8065 360.826 59.3107 360.632 58.5052C360.438 57.6998 360.934 56.8898 361.74 56.696L362.091 58.1543L362.442 59.6127ZM368.497 54.9714C369.297 54.7554 370.12 55.2286 370.336 56.0283C370.553 56.8281 370.079 57.6515 369.28 57.8676L368.888 56.4195L368.497 54.9714ZM376 55.9477C375.207 56.1869 374.37 55.7379 374.131 54.9448C373.892 54.1517 374.341 53.3148 375.134 53.0755L375.567 54.5116L376 55.9477ZM381.758 50.9639C382.543 50.6996 383.394 51.1219 383.658 51.907C383.923 52.6922 383.5 53.5429 382.715 53.8072L382.237 52.3855L381.758 50.9639ZM389.297 51.4664C388.522 51.7577 387.657 51.3652 387.366 50.5897C387.074 49.8141 387.467 48.9493 388.242 48.658L388.77 50.0622L389.297 51.4664ZM394.726 46.0769C395.489 45.7547 396.369 46.1123 396.691 46.8755C397.013 47.6387 396.656 48.5186 395.892 48.8407L395.309 47.4588L394.726 46.0769ZM402.175 46.0227C401.427 46.3795 400.532 46.0627 400.175 45.3151C399.818 44.5674 400.135 43.6721 400.883 43.3153L401.529 44.669L402.175 46.0227ZM407.147 40.1012C407.872 39.7 408.785 39.9624 409.186 40.6872C409.587 41.412 409.325 42.3248 408.6 42.726L407.873 41.4136L407.147 40.1012ZM414.68 39.0513C413.99 39.5098 413.059 39.3222 412.601 38.6322C412.142 37.9422 412.33 37.0112 413.02 36.5527L413.85 37.802L414.68 39.0513ZM418.404 32.5113C419.031 31.9694 419.978 32.0381 420.52 32.6647C421.062 33.2913 420.993 34.2386 420.367 34.7805L419.385 33.6459L418.404 32.5113ZM425.362 29.3629C424.898 30.0489 423.965 30.2287 423.279 29.7644C422.593 29.3001 422.413 28.3675 422.877 27.6814L424.12 28.5222L425.362 29.3629ZM424.491 22.3231C424.342 21.5082 424.881 20.7267 425.696 20.5775C426.511 20.4282 427.293 20.9679 427.442 21.7827L425.967 22.0529L424.491 22.3231ZM422.663 15.6147C423.369 16.0472 423.591 16.9707 423.159 17.6772C422.726 18.3837 421.803 18.6058 421.096 18.1732L421.879 16.8939L422.663 15.6147ZM415.094 15.7561C414.294 15.5388 413.823 14.7147 414.04 13.9152C414.257 13.1158 415.081 12.6439 415.881 12.8611L415.487 14.3086L415.094 15.7561ZM408.697 11.4515C409.518 11.5635 410.092 12.3197 409.98 13.1405C409.868 13.9614 409.112 14.536 408.291 14.424L408.494 12.9378L408.697 11.4515ZM401.635 13.7785C400.808 13.7263 400.181 13.0137 400.233 12.1869C400.285 11.3601 400.998 10.7322 401.824 10.7844L401.73 12.2815L401.635 13.7785ZM394.775 10.5284C395.603 10.5386 396.266 11.2184 396.256 12.0468C396.246 12.8752 395.566 13.5384 394.738 13.5281L394.756 12.0282L394.775 10.5284ZM387.867 13.5764C387.039 13.5969 386.351 12.9422 386.331 12.114C386.31 11.2858 386.965 10.5979 387.793 10.5773L387.83 12.0769L387.867 13.5764ZM380.656 10.864C381.483 10.8189 382.19 11.453 382.235 12.2802C382.28 13.1074 381.646 13.8145 380.819 13.8595L380.737 12.3617L380.656 10.864ZM374.139 14.3021C373.313 14.366 372.592 13.7482 372.528 12.9223C372.464 12.0963 373.082 11.375 373.908 11.3111L374.023 12.8066L374.139 14.3021ZM366.649 11.9499C367.473 11.8691 368.207 12.4719 368.288 13.2964C368.369 14.1208 367.766 14.8548 366.941 14.9356L366.795 13.4428L366.649 11.9499ZM360.207 15.6532C359.384 15.7475 358.641 15.1568 358.546 14.3338C358.452 13.5108 359.043 12.7671 359.866 12.6727L360.036 14.1629L360.207 15.6532ZM353.077 13.5015C353.898 13.3954 354.65 13.9753 354.757 14.7969C354.863 15.6185 354.283 16.3706 353.461 16.4768L353.269 14.9892L353.077 13.5015ZM346.343 17.4458C345.523 17.5629 344.763 16.993 344.646 16.1729C344.529 15.3528 345.099 14.593 345.919 14.4759L346.131 15.9608L346.343 17.4458ZM339.001 15.5051C339.82 15.3786 340.586 15.9397 340.713 16.7584C340.839 17.5771 340.278 18.3434 339.459 18.4699L339.23 16.9875L339.001 15.5051ZM332.849 19.5256C332.032 19.6603 331.26 19.1068 331.125 18.2894C330.991 17.472 331.544 16.7002 332.362 16.5655L332.605 18.0456L332.849 19.5256ZM325.448 17.7387C326.264 17.5963 327.041 18.1424 327.183 18.9585C327.326 19.7746 326.779 20.5517 325.963 20.694L325.706 19.2164L325.448 17.7387ZM318.798 21.9777C317.984 22.1274 317.202 21.5883 317.052 20.7735C316.902 19.9587 317.441 19.1768 318.256 19.0271L318.527 20.5024L318.798 21.9777ZM311.553 20.2856C312.367 20.1297 313.153 20.6628 313.309 21.4764C313.465 22.29 312.932 23.076 312.118 23.232L311.836 21.7588L311.553 20.2856ZM305.512 24.5229C304.699 24.6846 303.91 24.157 303.748 23.3445C303.586 22.532 304.114 21.7423 304.926 21.5806L305.219 23.0517L305.512 24.5229ZM298.087 22.9661C298.899 22.7989 299.692 23.3211 299.859 24.1325C300.027 24.9438 299.504 25.7371 298.693 25.9044L298.39 24.4352L298.087 22.9661ZM291.659 27.3782C290.849 27.5507 290.052 27.0337 289.88 26.2234C289.707 25.4131 290.224 24.6164 291.035 24.4439L291.347 25.911L291.659 27.3782ZM284.06 25.9512C284.869 25.7738 285.669 26.2859 285.846 27.0951C286.024 27.9044 285.511 28.7042 284.702 28.8816L284.381 27.4164L284.06 25.9512ZM278.214 30.3223C277.405 30.504 276.603 29.9961 276.421 29.1878C276.24 28.3796 276.747 27.577 277.556 27.3954L277.885 28.8588L278.214 30.3223ZM270.885 28.9132C271.692 28.7274 272.497 29.2311 272.683 30.0385C272.869 30.8458 272.365 31.6509 271.558 31.8367L271.221 30.375L270.885 28.9132ZM264.733 33.426C263.927 33.6159 263.119 33.1161 262.929 32.3097C262.739 31.5034 263.239 30.6957 264.045 30.5059L264.389 31.9659L264.733 33.426ZM257.037 32.1744C257.842 31.9806 258.652 32.4764 258.846 33.2819C259.04 34.0873 258.544 34.8974 257.738 35.0911L257.387 33.6328L257.037 32.1744ZM250.785 36.7811C249.981 36.9785 249.168 36.4864 248.971 35.6819C248.773 34.8773 249.265 34.065 250.07 33.8675L250.428 35.3243L250.785 36.7811ZM243.606 35.4681C244.41 35.2674 245.224 35.7562 245.425 36.5599C245.625 37.3637 245.137 38.178 244.333 38.3787L243.969 36.9234L243.606 35.4681ZM237.746 40.0377C236.943 40.2416 236.127 39.756 235.923 38.953C235.719 38.1501 236.204 37.3339 237.007 37.13L237.376 38.5838L237.746 40.0377ZM230.273 38.854C231.075 38.647 231.893 39.1295 232.1 39.9317C232.307 40.7338 231.825 41.5519 231.023 41.7589L230.648 40.3064L230.273 38.854ZM224.163 43.5429C223.361 43.753 222.541 43.2736 222.331 42.4722C222.121 41.6708 222.601 40.851 223.402 40.6409L223.782 42.092L224.163 43.5429ZM216.394 42.4915C217.194 42.2785 218.016 42.7549 218.229 43.5555C218.442 44.3561 217.966 45.1777 217.165 45.3907L216.779 43.9411L216.394 42.4915ZM210.509 47.5374C209.734 47.8299 208.868 47.4387 208.576 46.6637C208.283 45.8886 208.675 45.0232 209.45 44.7307L209.979 46.134L210.509 47.5374ZM203.092 47.0558C203.873 46.7794 204.73 47.1884 205.007 47.9694C205.283 48.7503 204.874 49.6075 204.093 49.8839L203.593 48.4699L203.092 47.0558ZM197.577 52.1106C196.79 52.3698 195.942 51.942 195.683 51.1552C195.424 50.3683 195.852 49.5204 196.638 49.2612L197.108 50.6859L197.577 52.1106ZM190.235 51.2905C191.027 51.0493 191.865 51.4963 192.107 52.2889C192.348 53.0814 191.901 53.9194 191.108 54.1606L190.672 52.7255L190.235 51.2905ZM184.462 56.0949C183.664 56.3165 182.837 55.8491 182.615 55.0509C182.394 54.2527 182.861 53.4259 183.659 53.2043L184.061 54.6496L184.462 56.0949ZM177.114 54.9329C177.917 54.7317 178.732 55.2201 178.933 56.0237C179.134 56.8273 178.646 57.6419 177.842 57.8431L177.478 56.388L177.114 54.9329ZM171.194 59.4139C170.386 59.5935 169.584 59.0835 169.405 58.2748C169.225 57.4661 169.735 56.6649 170.544 56.4853L170.869 57.9496L171.194 59.4139ZM163.868 57.8696C164.681 57.7131 165.467 58.2456 165.624 59.0591C165.781 59.8726 165.248 60.659 164.434 60.8156L164.151 59.3426L163.868 57.8696ZM157.684 62.0124C156.866 62.1448 156.096 61.5893 155.963 60.7715C155.831 59.9537 156.386 59.1834 157.204 59.051L157.444 60.5317L157.684 62.0124ZM150.542 60.0261C151.363 59.9188 152.116 60.4977 152.223 61.3192C152.33 62.1406 151.752 62.8935 150.93 63.0008L150.736 61.5134L150.542 60.0261ZM144.072 63.7846C143.248 63.8653 142.514 63.2623 142.433 62.4378C142.353 61.6133 142.956 60.8796 143.78 60.7989L143.926 62.2918L144.072 63.7846ZM137.019 61.3474C137.846 61.2943 138.559 61.9214 138.612 62.7481C138.665 63.5748 138.038 64.2881 137.211 64.3412L137.115 62.8443L137.019 61.3474ZM130.351 64.6644C129.523 64.6892 128.832 64.0379 128.807 63.2099C128.783 62.3818 129.434 61.6905 130.262 61.6658L130.307 63.1651L130.351 64.6644ZM123.508 61.7495C124.336 61.7538 125.004 62.4288 125 63.2573C124.996 64.0857 124.321 64.7538 123.492 64.7495L123.5 63.2495L123.508 61.7495ZM116.636 64.5925C115.809 64.5587 115.165 63.8604 115.199 63.0327C115.232 62.2049 115.931 61.5612 116.758 61.5949L116.697 63.0937L116.636 64.5925ZM110.001 61.1988C110.827 61.262 111.445 61.9829 111.382 62.8089C111.319 63.6349 110.598 64.2533 109.772 64.19L109.886 62.6944L110.001 61.1988ZM102.919 63.5426C102.096 63.4502 101.504 62.7078 101.596 61.8845C101.688 61.0613 102.431 60.4689 103.254 60.5614L103.087 62.052L102.919 63.5426ZM96.5375 59.6884C97.357 59.8093 97.9234 60.5717 97.8026 61.3912C97.6817 62.2108 96.9193 62.7772 96.0998 62.6563L96.3186 61.1724L96.5375 59.6884ZM89.3197 61.5408C88.5046 61.393 87.9636 60.6123 88.1115 59.7972C88.2593 58.982 89.0399 58.4411 89.855 58.5889L89.5874 60.0649L89.3197 61.5408ZM83.2102 57.2766C84.0204 57.4494 84.5372 58.2463 84.3644 59.0565C84.1917 59.8667 83.3948 60.3834 82.5846 60.2107L82.8974 58.7437L83.2102 57.2766ZM75.8987 58.6865C75.0935 58.4916 74.5989 57.6808 74.7938 56.8757C74.9888 56.0705 75.7995 55.5758 76.6047 55.7708L76.2517 57.2286L75.8987 58.6865ZM70.0336 54.0961C70.834 54.3096 71.3098 55.1316 71.0963 55.932C70.8827 56.7325 70.0607 57.2082 69.2603 56.9947L69.6469 55.5454L70.0336 54.0961ZM62.6482 55.1645C61.8516 54.9369 61.3904 54.1067 61.6179 53.3102C61.8455 52.5136 62.6757 52.0524 63.4723 52.2799L63.0602 53.7222L62.6482 55.1645ZM56.9299 50.3697C57.7241 50.6054 58.1768 51.4403 57.9411 52.2344C57.7054 53.0286 56.8705 53.4814 56.0763 53.2457L56.5031 51.8077L56.9299 50.3697ZM49.5375 51.2962C48.7435 51.06 48.2913 50.2248 48.5276 49.4307C48.7638 48.6367 49.599 48.1845 50.393 48.4208L49.9653 49.8585L49.5375 51.2962ZM43.8437 46.5054C44.6405 46.7324 45.1024 47.5622 44.8754 48.3589C44.6485 49.1557 43.8186 49.6176 43.0219 49.3906L43.4328 47.948L43.8437 46.5054ZM36.4668 47.6119C35.664 47.4075 35.1789 46.591 35.3833 45.7882C35.5876 44.9854 36.4042 44.5002 37.207 44.7046L36.8369 46.1583L36.4668 47.6119ZM30.4893 43.1574C31.3013 43.3214 31.8266 44.1127 31.6625 44.9247C31.4985 45.7367 30.7072 46.262 29.8952 46.0979L30.1923 44.6277L30.4893 43.1574ZM23.2825 45.0111C22.4602 44.9111 21.8746 44.1634 21.9746 43.341C22.0747 42.5186 22.8224 41.9331 23.6448 42.0331L23.4636 43.5221L23.2825 45.0111ZM16.6801 41.5612C17.5084 41.5681 18.1744 42.2453 18.1675 43.0737C18.1606 43.9021 17.4834 44.568 16.655 44.5611L16.6675 43.0612L16.6801 41.5612ZM10.0751 44.9744C9.25471 45.0894 8.49643 44.5175 8.38146 43.6971C8.26653 42.8767 8.83839 42.1184 9.65881 42.0034L9.86698 43.4889L10.0751 44.9744ZM2.77223 43.5667C3.5614 43.3147 4.40543 43.7502 4.65741 44.5394C4.90937 45.3285 4.47387 46.1725 3.6847 46.4245L3.22847 44.9956L2.77223 43.5667ZM132.001 1.99984L133.061 0.93918C133.894 1.77208 134.731 2.59518 135.572 3.40859L134.529 4.48664L133.486 5.56468C132.633 4.73978 131.785 3.9051 130.94 3.0605L132.001 1.99984ZM139.655 9.28507L140.662 8.17318C142.373 9.72303 144.1 11.2348 145.84 12.7091L144.87 13.8535L143.9 14.998C142.135 13.5024 140.384 11.9689 138.648 10.397L139.655 9.28507ZM150.222 18.2389L151.153 17.063C152.987 18.5152 154.834 19.9279 156.694 21.3019L155.803 22.5084L154.912 23.715C153.025 22.321 151.151 20.8879 149.291 19.4147L150.222 18.2389ZM161.462 26.5444L162.313 25.3088C164.207 26.6123 166.113 27.8776 168.03 29.1055L167.221 30.3686L166.412 31.6318C164.467 30.3861 162.533 29.1024 160.612 27.78L161.462 26.5444ZM173.196 34.0555L173.963 32.7659C175.951 33.9474 177.951 35.0903 179.96 36.1957L179.237 37.5099L178.514 38.8241C176.476 37.703 174.448 36.5436 172.43 35.3451L173.196 34.0555ZM185.354 40.7468L186.034 39.4097C188.111 40.4658 190.198 41.4834 192.292 42.4633L191.657 43.8219L191.021 45.1806C188.897 44.1869 186.781 43.155 184.675 42.0839L185.354 40.7468ZM198.006 46.6695L198.598 45.2912C200.715 46.2002 202.839 47.0722 204.969 47.9082L204.421 49.3045L203.873 50.7008C201.714 49.8534 199.561 48.9694 197.415 48.0479L198.006 46.6695ZM210.98 51.7608L211.484 50.348C213.66 51.1247 215.842 51.8651 218.027 52.5701L217.567 53.9977L217.106 55.4252C214.892 54.7108 212.681 53.9606 210.475 53.1736L210.98 51.7608ZM224.211 56.0315L224.628 54.5908C226.861 55.238 229.097 55.8495 231.334 56.4264L230.959 57.8789L230.584 59.3313C228.319 58.7471 226.055 58.1278 223.793 57.4722L224.211 56.0315ZM237.714 59.5171L238.047 58.0544C240.304 58.5676 242.561 59.0466 244.817 59.4925L244.526 60.964L244.236 62.4356C241.952 61.9842 239.667 61.4993 237.381 60.9798L237.714 59.5171ZM251.402 62.2232L251.651 60.7441C253.927 61.1283 256.2 61.4798 258.469 61.7996L258.26 63.2849L258.05 64.7703C255.755 64.4466 253.455 64.091 251.152 63.7023L251.402 62.2232ZM265.19 64.167L265.359 62.6766C267.667 62.939 269.97 63.1696 272.265 63.3696L272.135 64.864L272.004 66.3583C269.683 66.1561 267.355 65.9228 265.021 65.6574L265.19 64.167ZM279.035 65.3761L279.127 63.8789C281.461 64.0222 283.786 64.1346 286.101 64.2173L286.047 65.7164L285.994 67.2154C283.654 67.1318 281.303 67.0181 278.944 66.8733L279.035 65.3761ZM293.005 65.878L293.022 64.3781C295.337 64.4031 297.64 64.3991 299.93 64.3674L299.95 65.8673L299.971 67.3672C297.657 67.3991 295.33 67.4032 292.989 67.378L293.005 65.878ZM306.962 65.6841L306.904 64.1852C309.214 64.0965 311.507 63.9803 313.782 63.838L313.875 65.335L313.969 66.8321C311.67 66.9759 309.353 67.0933 307.02 67.183L306.962 65.6841ZM320.864 64.8127L320.734 63.3183C323.057 63.1164 325.358 62.8878 327.637 62.6342L327.803 64.125L327.969 65.6158C325.667 65.872 323.341 66.103 320.994 66.307L320.864 64.8127ZM334.674 63.2764L334.472 61.79C336.809 61.4728 339.118 61.1298 341.398 60.7628L341.636 62.2437L341.875 63.7247C339.571 64.0955 337.237 64.4422 334.876 64.7627L334.674 63.2764ZM348.419 61.0664L348.144 59.5918C350.475 59.1575 352.771 58.6987 355.029 58.2174L355.342 59.6845L355.655 61.1516C353.372 61.6381 351.05 62.102 348.693 62.5411L348.419 61.0664ZM362.091 58.1543L361.74 56.696C364.039 56.1428 366.292 55.5671 368.497 54.9714L368.888 56.4195L369.28 57.8676C367.047 58.4706 364.767 59.0531 362.442 59.6127L362.091 58.1543ZM375.567 54.5116L375.134 53.0755C377.403 52.3909 379.613 51.686 381.758 50.9639L382.237 52.3855L382.715 53.8072C380.539 54.5396 378.3 55.2541 376 55.9477L375.567 54.5116ZM388.77 50.0622L388.242 48.658C390.49 47.8134 392.653 46.9516 394.726 46.0769L395.309 47.4588L395.892 48.8407C393.782 49.7317 391.581 50.6083 389.297 51.4664L388.77 50.0622ZM401.529 44.669L400.883 43.3153C403.11 42.2523 405.201 41.1784 407.147 40.1012L407.873 41.4136L408.6 42.726C406.597 43.8347 404.452 44.936 402.175 46.0227L401.529 44.669ZM413.85 37.802L413.02 36.5527C415.076 35.1866 416.875 33.8341 418.404 32.5113L419.385 33.6459L420.367 34.7805C418.725 36.2002 416.822 37.6284 414.68 39.0513L413.85 37.802ZM424.12 28.5222L422.877 27.6814C424.315 25.5579 424.757 23.7738 424.491 22.3231L425.967 22.0529L427.442 21.7827C427.901 24.2921 427.045 26.8767 425.362 29.3629L424.12 28.5222ZM421.879 16.8939L421.096 18.1732C419.624 17.2718 417.646 16.4496 415.094 15.7561L415.487 14.3086L415.881 12.8611C418.615 13.6044 420.878 14.5222 422.663 15.6147L421.879 16.8939ZM408.494 12.9378L408.291 14.424C406.272 14.1486 404.056 13.9314 401.635 13.7785L401.73 12.2815L401.824 10.7844C404.308 10.9413 406.597 11.1651 408.697 11.4515L408.494 12.9378ZM394.756 12.0282L394.738 13.5281C392.574 13.5013 390.285 13.5166 387.867 13.5764L387.83 12.0769L387.793 10.5773C390.245 10.5166 392.571 10.5011 394.775 10.5284L394.756 12.0282ZM380.737 12.3617L380.819 13.8595C378.678 13.9761 376.452 14.1232 374.139 14.3021L374.023 12.8066L373.908 11.3111C376.242 11.1305 378.491 10.9819 380.656 10.864L380.737 12.3617ZM366.795 13.4428L366.941 14.9356C364.764 15.1491 362.52 15.388 360.207 15.6532L360.036 14.1629L359.866 12.6727C362.194 12.4058 364.455 12.1651 366.649 11.9499L366.795 13.4428ZM353.269 14.9892L353.461 16.4768C351.151 16.7753 348.778 17.0981 346.343 17.4458L346.131 15.9608L345.919 14.4759C348.367 14.1264 350.753 13.8018 353.077 13.5015L353.269 14.9892ZM339.23 16.9875L339.459 18.4699C337.302 18.8033 335.098 19.1551 332.849 19.5256L332.605 18.0456L332.362 16.5655C334.62 16.1934 336.833 15.8401 339.001 15.5051L339.23 16.9875ZM325.706 19.2164L325.963 20.694C323.622 21.1026 321.234 21.5303 318.798 21.9777L318.527 20.5024L318.256 19.0271C320.7 18.5781 323.097 18.1488 325.448 17.7387L325.706 19.2164ZM311.836 21.7588L312.118 23.232C309.951 23.6474 307.749 24.0776 305.512 24.5229L305.219 23.0517L304.926 21.5806C307.171 21.1339 309.379 20.7024 311.553 20.2856L311.836 21.7588ZM298.39 24.4352L298.693 25.9044C296.384 26.3801 294.04 26.8713 291.659 27.3782L291.347 25.911L291.035 24.4439C293.421 23.9357 295.772 23.4432 298.087 22.9661L298.39 24.4352ZM284.381 27.4164L284.702 28.8816C282.567 29.3497 280.404 29.8298 278.214 30.3223L277.885 28.8588L277.556 27.3954C279.751 26.9017 281.919 26.4204 284.06 25.9512L284.381 27.4164ZM271.221 30.375L271.558 31.8367C269.311 32.354 267.036 32.8836 264.733 33.426L264.389 31.9659L264.045 30.5059C266.353 29.9624 268.633 29.4316 270.885 28.9132L271.221 30.375ZM257.387 33.6328L257.738 35.0911C255.448 35.6423 253.13 36.2056 250.785 36.7811L250.428 35.3243L250.07 33.8675C252.419 33.291 254.741 32.7266 257.037 32.1744L257.387 33.6328ZM243.969 36.9234L244.333 38.3787C242.16 38.9214 239.964 39.4744 237.746 40.0377L237.376 38.5838L237.007 37.13C239.229 36.5657 241.429 36.0118 243.606 35.4681L243.969 36.9234ZM230.648 40.3064L231.023 41.7589C228.759 42.343 226.472 42.9377 224.163 43.5429L223.782 42.092L223.402 40.6409C225.715 40.0347 228.005 39.4391 230.273 38.854L230.648 40.3064ZM216.779 43.9411L217.165 45.3907C215.987 45.704 214.803 46.0201 213.614 46.3388L213.226 44.8899L212.837 43.441C214.029 43.1218 215.214 42.8053 216.394 42.4915L216.779 43.9411ZM213.226 44.8899L213.769 46.2878C212.677 46.713 211.59 47.1295 210.509 47.5374L209.979 46.134L209.45 44.7307C210.521 44.3263 211.598 43.9135 212.682 43.492L213.226 44.8899ZM203.593 48.4699L204.093 49.8839C201.896 50.6614 199.724 51.4033 197.577 52.1106L197.108 50.6859L196.638 49.2612C198.765 48.5608 200.916 47.8261 203.092 47.0558L203.593 48.4699ZM190.672 52.7255L191.108 54.1606C188.866 54.8429 186.65 55.4873 184.462 56.0949L184.061 54.6496L183.659 53.2043C185.824 52.6033 188.016 51.9658 190.235 51.2905L190.672 52.7255ZM177.478 56.388L177.842 57.8431C175.597 58.4051 173.382 58.9282 171.194 59.4139L170.869 57.9496L170.544 56.4853C172.705 56.0054 174.895 55.4885 177.114 54.9329L177.478 56.388ZM164.151 59.3426L164.434 60.8156C162.152 61.2548 159.902 61.653 157.684 62.0124L157.444 60.5317L157.204 59.051C159.393 58.6964 161.614 58.3033 163.868 57.8696L164.151 59.3426ZM150.736 61.5134L150.93 63.0008C148.609 63.3039 146.323 63.5644 144.072 63.7846L143.926 62.2918L143.78 60.7989C145.999 60.5818 148.252 60.325 150.542 60.0261L150.736 61.5134ZM137.115 62.8443L137.211 64.3412C134.887 64.4906 132.6 64.5972 130.351 64.6644L130.307 63.1651L130.262 61.6658C132.477 61.5996 134.729 61.4945 137.019 61.3474L137.115 62.8443ZM123.5 63.2495L123.492 64.7495C121.166 64.7375 118.881 64.6838 116.636 64.5925L116.697 63.0937L116.758 61.5949C118.968 61.6849 121.218 61.7377 123.508 61.7495L123.5 63.2495ZM109.886 62.6944L109.772 64.19C107.443 64.0117 105.16 63.7943 102.919 63.5426L103.087 62.052L103.254 60.5614C105.46 60.8092 107.709 61.0233 110.001 61.1988L109.886 62.6944ZM96.3186 61.1724L96.0998 62.6563C93.7931 62.3162 91.5338 61.9423 89.3197 61.5408L89.5874 60.0649L89.855 58.5889C92.0382 58.9849 94.2649 59.3533 96.5375 59.6884L96.3186 61.1724ZM82.8974 58.7437L82.5846 60.2107C80.3072 59.725 78.0794 59.2145 75.8987 58.6865L76.2517 57.2286L76.6047 55.7708C78.761 56.2929 80.9619 56.7972 83.2102 57.2766L82.8974 58.7437ZM69.6469 55.5454L69.2603 56.9947C67.0055 56.3931 64.8024 55.78 62.6482 55.1645L63.0602 53.7222L63.4723 52.2799C65.6132 52.8916 67.799 53.4999 70.0336 54.0961L69.6469 55.5454ZM56.5031 51.8077L56.0763 53.2457C53.8497 52.5848 51.6614 51.9281 49.5375 51.2962L49.9653 49.8585L50.393 48.4208C52.5316 49.0571 54.6989 49.7076 56.9299 50.3697L56.5031 51.8077ZM43.4328 47.948L43.0219 49.3906C40.7831 48.753 38.6007 48.1551 36.4668 47.6119L36.8369 46.1583L37.207 44.7046C39.376 45.2568 41.5869 45.8626 43.8437 46.5054L43.4328 47.948ZM30.1923 44.6277L29.8952 46.0979C27.6382 45.6419 25.4372 45.2732 23.2825 45.0111L23.4636 43.5221L23.6448 42.0331C25.8903 42.3062 28.1697 42.6887 30.4893 43.1574L30.1923 44.6277ZM16.6675 43.0612L16.655 44.5611C14.4208 44.5424 12.2315 44.6722 10.0751 44.9744L9.86698 43.4889L9.65881 42.0034C11.9753 41.6788 14.313 41.5414 16.6801 41.5612L16.6675 43.0612Z" fill="white"/>
</svg>
