<svg width="10" height="20" viewBox="0 0 10 20" fill="none" xmlns="http://www.w3.org/2000/svg">
<path d="M0.947266 16.8555L7.53906 10.166C7.6888 10.0098 7.76367 9.82585 7.76367 9.61426C7.76367 9.40267 7.6888 9.222 7.53906 9.07227L0.947266 2.37305C0.797526 2.22331 0.722656 2.04102 0.722656 1.82617C0.722656 1.61133 0.797526 1.42578 0.947266 1.26953C1.097 1.11979 1.27767 1.04492 1.48926 1.04492C1.70085 1.04492 1.88151 1.11979 2.03125 1.26953L8.62305 7.96875C8.8444 8.19661 9.01367 8.45378 9.13086 8.74023C9.24154 9.02669 9.29688 9.31966 9.29688 9.61914C9.29688 9.91862 9.24154 10.2116 9.13086 10.498C9.01367 10.7845 8.8444 11.0417 8.62305 11.2695L2.03125 17.959C1.88151 18.1087 1.70085 18.1836 1.48926 18.1836C1.27767 18.1836 1.097 18.1087 0.947266 17.959C0.797526 17.8092 0.722656 17.627 0.722656 17.4121C0.722656 17.1973 0.797526 17.0117 0.947266 16.8555Z" fill="black"/>
</svg>
