<svg width="270" height="152" viewBox="0 0 270 152" fill="none" xmlns="http://www.w3.org/2000/svg">
<path d="M163 152L149.787 140.801L166.092 134.957L163 152ZM2.68969 102.332C1.95396 102.713 1.04885 102.425 0.668082 101.689C0.287305 100.954 0.575055 100.048 1.31078 99.6677L2.00024 101L2.68969 102.332ZM255 34.0001L256.284 33.225L255 34.0001ZM160.423 149.255C160.153 148.472 160.57 147.618 161.353 147.349C162.136 147.079 162.99 147.495 163.26 148.278L161.841 148.767L160.423 149.255ZM161.213 141.836C161.445 142.632 160.988 143.464 160.193 143.696C159.397 143.928 158.565 143.471 158.333 142.675L159.773 142.256L161.213 141.836ZM156.559 135.992C156.366 135.187 156.862 134.377 157.667 134.183C158.473 133.99 159.283 134.486 159.476 135.292L158.018 135.642L156.559 135.992ZM158.051 128.668C158.206 129.482 157.672 130.267 156.858 130.423C156.044 130.578 155.259 130.044 155.104 129.23L156.577 128.949L158.051 128.668ZM153.968 122.415C153.85 121.595 154.42 120.835 155.24 120.718C156.06 120.601 156.82 121.17 156.937 121.99L155.452 122.203L153.968 122.415ZM156.134 115.274C156.213 116.098 155.609 116.831 154.785 116.911C153.96 116.99 153.227 116.387 153.148 115.562L154.641 115.418L156.134 115.274ZM152.64 108.671C152.598 107.844 153.234 107.139 154.062 107.097C154.889 107.055 155.594 107.691 155.636 108.519L154.138 108.595L152.64 108.671ZM155.444 101.741C155.449 102.569 154.781 103.245 153.953 103.25C153.124 103.255 152.449 102.587 152.444 101.759L153.944 101.75L155.444 101.741ZM152.558 94.8497C152.59 94.0219 153.287 93.3769 154.115 93.4092C154.943 93.4414 155.588 94.1386 155.556 94.9664L154.057 94.908L152.558 94.8497ZM155.971 88.2096C155.901 89.0351 155.176 89.6482 154.35 89.5789C153.525 89.5096 152.912 88.7842 152.981 87.9587L154.476 88.0841L155.971 88.2096ZM153.712 81.1002C153.819 80.2786 154.571 79.6988 155.392 79.8052C156.214 79.9116 156.794 80.6638 156.687 81.4854L155.2 81.2928L153.712 81.1002ZM157.711 74.7837C157.567 75.5995 156.789 76.1443 155.973 76.0004C155.158 75.8566 154.613 75.0786 154.757 74.2628L156.234 74.5232L157.711 74.7837ZM156.117 67.4782C156.298 66.6699 157.101 66.1622 157.909 66.344C158.717 66.5258 159.225 67.3284 159.043 68.1367L157.58 67.8074L156.117 67.4782ZM160.688 61.5663C160.467 62.3648 159.641 62.8334 158.843 62.6128C158.044 62.3922 157.576 61.5661 157.796 60.7676L159.242 61.1669L160.688 61.5663ZM159.803 54.1486C160.064 53.3621 160.912 52.9356 161.699 53.196C162.485 53.4564 162.912 54.305 162.651 55.0914L161.227 54.62L159.803 54.1486ZM164.943 48.7332C164.641 49.5047 163.771 49.8857 163 49.5841C162.228 49.2825 161.847 48.4125 162.149 47.6409L163.546 48.187L164.943 48.7332ZM164.848 41.268C165.193 40.5148 166.083 40.1836 166.836 40.5285C167.589 40.8733 167.92 41.7634 167.575 42.5167L166.212 41.8923L164.848 41.268ZM170.567 36.4729C170.176 37.2035 169.267 37.4792 168.537 37.0887C167.806 36.6982 167.53 35.7894 167.921 35.0588L169.244 35.7658L170.567 36.4729ZM171.395 29.0508C171.834 28.3485 172.76 28.1352 173.462 28.5745C174.165 29.0138 174.378 29.9393 173.938 30.6417L172.667 29.8463L171.395 29.0508ZM177.717 25.077C177.225 25.7435 176.286 25.8851 175.619 25.3932C174.953 24.9012 174.811 23.9621 175.303 23.2955L176.51 24.1862L177.717 25.077ZM179.686 17.8649C180.235 17.2445 181.183 17.1866 181.803 17.7355C182.423 18.2845 182.481 19.2325 181.932 19.8529L180.809 18.8589L179.686 17.8649ZM186.613 15.073C186.003 15.633 185.054 15.592 184.494 14.9815C183.934 14.371 183.975 13.4221 184.585 12.8622L185.599 13.9676L186.613 15.073ZM190.042 8.43336C190.718 7.95366 191.654 8.11231 192.134 8.78772C192.613 9.46313 192.455 10.3995 191.779 10.8792L190.911 9.6563L190.042 8.43336ZM197.426 7.45694C196.687 7.83012 195.785 7.53306 195.411 6.79345C195.038 6.05384 195.335 5.15174 196.075 4.77856L196.751 6.11775L197.426 7.45694ZM202.653 2.15012C203.448 1.91456 204.282 2.36745 204.518 3.16168C204.754 3.95591 204.301 4.79072 203.506 5.02628L203.08 3.5882L202.653 2.15012ZM209.916 3.80814C209.091 3.87753 208.365 3.26457 208.296 2.43905C208.227 1.61353 208.84 0.888072 209.665 0.818684L209.791 2.31341L209.916 3.80814ZM216.803 0.984352C217.624 1.09186 218.203 1.8449 218.095 2.66632C217.988 3.48774 217.235 4.06649 216.413 3.95899L216.608 2.47167L216.803 0.984352ZM222.772 5.47093C221.989 5.20013 221.574 4.34592 221.844 3.56301C222.115 2.78009 222.969 2.36494 223.752 2.63574L223.262 4.05334L222.772 5.47093ZM230.225 5.55096C230.948 5.95419 231.208 6.86773 230.805 7.59139C230.401 8.31506 229.488 8.57482 228.764 8.17159L229.494 6.86127L230.225 5.55096ZM234.276 11.8043C233.618 11.3017 233.491 10.3604 233.994 9.70183C234.496 9.04325 235.438 8.91678 236.096 9.41934L235.186 10.6118L234.276 11.8043ZM241.404 13.9987C242.001 14.574 242.017 15.5236 241.442 16.1197C240.867 16.7158 239.917 16.7326 239.321 16.1573L240.363 15.078L241.404 13.9987ZM243.929 21.0575C243.389 20.4289 243.461 19.4819 244.089 18.9423C244.718 18.4026 245.665 18.4746 246.205 19.1032L245.067 20.0803L243.929 21.0575ZM250.505 24.5267C250.996 25.1942 250.852 26.133 250.185 26.6237C249.517 27.1143 248.578 26.9709 248.088 26.3033L249.297 25.415L250.505 24.5267ZM251.874 31.8182C251.426 31.1214 251.628 30.1933 252.325 29.7453C253.022 29.2973 253.95 29.499 254.398 30.1958L253.136 31.007L251.874 31.8182ZM258.149 36.38C258.564 37.0972 258.318 38.0147 257.601 38.4293C256.884 38.8438 255.966 38.5984 255.552 37.8812L256.85 37.1306L258.149 36.38ZM258.777 43.7395C258.394 43.0049 258.68 42.099 259.414 41.716C260.149 41.3331 261.055 41.6182 261.438 42.3528L260.108 43.0461L258.777 43.7395ZM264.535 48.7428C264.872 49.4997 264.531 50.3863 263.775 50.7231C263.018 51.0599 262.131 50.7194 261.794 49.9625L263.165 49.3527L264.535 48.7428ZM264.278 56.2253C264.009 55.4416 264.427 54.5885 265.21 54.3198C265.994 54.0511 266.847 54.4686 267.116 55.2522L265.697 55.7387L264.278 56.2253ZM268.974 62.053C269.132 62.8662 268.601 63.6537 267.788 63.8119C266.975 63.9702 266.188 63.4392 266.029 62.6261L267.502 62.3395L268.974 62.053ZM266.587 69.0946C266.623 68.2669 267.323 67.625 268.15 67.6607C268.978 67.6964 269.62 68.3963 269.584 69.224L268.086 69.1593L266.587 69.0946ZM267.947 76.3889C267.601 77.1418 266.711 77.4721 265.958 77.1266C265.205 76.781 264.875 75.8906 265.22 75.1376L266.584 75.7633L267.947 76.3889ZM261.473 79.978C262.108 79.4461 263.054 79.5297 263.586 80.1649C264.118 80.8 264.035 81.746 263.4 82.2779L262.436 81.128L261.473 79.978ZM257.116 85.9822C256.351 86.3002 255.473 85.9379 255.155 85.173C254.837 84.408 255.199 83.5301 255.964 83.212L256.54 84.5971L257.116 85.9822ZM249.618 85.1687C250.426 84.9872 251.229 85.4954 251.41 86.3038C251.592 87.1121 251.083 87.9144 250.275 88.0958L249.947 86.6323L249.618 85.1687ZM243.335 89.2552C242.512 89.3529 241.766 88.7652 241.668 87.9426C241.571 87.1199 242.158 86.3738 242.981 86.2761L243.158 87.7656L243.335 89.2552ZM236.244 86.8382C237.071 86.7944 237.777 87.4296 237.821 88.2569C237.865 89.0842 237.229 89.7903 236.402 89.834L236.323 88.3361L236.244 86.8382ZM229.478 90.037C228.649 90.044 227.972 89.3782 227.965 88.5498C227.958 87.7214 228.624 87.0441 229.452 87.0371L229.465 88.537L229.478 90.037ZM222.611 86.9825C223.439 87.0013 224.095 87.6879 224.076 88.5161C224.057 89.3443 223.371 90.0005 222.543 89.9818L222.577 88.4821L222.611 86.9825ZM215.582 89.7419C214.755 89.7047 214.114 89.0036 214.151 88.176C214.189 87.3484 214.89 86.7077 215.717 86.745L215.65 88.2435L215.582 89.7419ZM208.886 86.3803C209.713 86.4306 210.343 87.1418 210.293 87.9687C210.242 88.7956 209.531 89.4251 208.704 89.3748L208.795 87.8775L208.886 86.3803ZM201.845 88.9166C201.018 88.8571 200.397 88.139 200.456 87.3127C200.516 86.4864 201.234 85.8649 202.06 85.9244L201.953 87.4205L201.845 88.9166ZM195.167 85.3997C195.993 85.4655 196.609 86.1882 196.543 87.0141C196.477 87.8399 195.754 88.456 194.929 88.3902L195.048 86.895L195.167 85.3997ZM188.084 87.8278C187.258 87.7582 186.646 87.0326 186.715 86.2071C186.785 85.3816 187.51 84.7688 188.336 84.8383L188.21 86.3331L188.084 87.8278ZM181.486 84.2524C182.311 84.3237 182.923 85.0507 182.851 85.876C182.78 86.7014 182.053 87.3126 181.228 87.2412L181.357 85.7468L181.486 84.2524ZM174.333 86.6436C173.507 86.5721 172.896 85.8451 172.968 85.0198C173.039 84.1944 173.766 83.5833 174.592 83.6547L174.462 85.1491L174.333 86.6436ZM167.768 83.0688C168.594 83.1389 169.206 83.8649 169.136 84.6903C169.066 85.5158 168.34 86.1281 167.515 86.0581L167.642 84.5635L167.768 83.0688ZM160.632 85.4845C159.806 85.4172 159.192 84.6933 159.259 83.8676C159.326 83.0419 160.05 82.4271 160.876 82.4945L160.754 83.9895L160.632 85.4845ZM154.027 81.9519C154.853 82.0152 155.472 82.7362 155.408 83.5622C155.345 84.3882 154.624 85.0065 153.798 84.9431L153.913 83.4475L154.027 81.9519ZM146.933 84.4375C146.107 84.3794 145.484 83.6623 145.542 82.8359C145.6 82.0095 146.317 81.3868 147.144 81.4449L147.039 82.9412L146.933 84.4375ZM140.266 80.9863C141.093 81.0381 141.721 81.7505 141.669 82.5773C141.617 83.4041 140.905 84.0323 140.078 83.9804L140.172 82.4833L140.266 80.9863ZM133.221 83.58C132.394 83.5355 131.759 82.8288 131.804 82.0015C131.848 81.1743 132.555 80.5398 133.382 80.5843L133.302 82.0821L133.221 83.58ZM126.486 80.248C127.313 80.284 127.955 80.9841 127.919 81.8118C127.883 82.6394 127.183 83.2812 126.355 83.2451L126.421 81.7466L126.486 80.248ZM119.499 82.9858C118.671 82.9594 118.022 82.2668 118.048 81.4388C118.074 80.6108 118.767 79.9609 119.595 79.9874L119.547 81.4866L119.499 82.9858ZM112.689 79.811C113.517 79.8267 114.176 80.5109 114.16 81.3391C114.144 82.1674 113.46 82.8262 112.632 82.8105L112.66 81.3108L112.689 79.811ZM105.774 82.7291C104.946 82.7254 104.278 82.0507 104.281 81.2223C104.285 80.3939 104.96 79.7254 105.788 79.7292L105.781 81.2292L105.774 82.7291ZM98.8801 79.7516C99.7084 79.7422 100.388 80.4062 100.397 81.2345C100.406 82.0629 99.7423 82.742 98.9139 82.7514L98.897 81.2515L98.8801 79.7516ZM92.0574 82.8876C91.2293 82.9114 90.5387 82.2594 90.5149 81.4313C90.4912 80.6032 91.1432 79.9126 91.9713 79.8888L92.0143 81.3882L92.0574 82.8876ZM85.0677 80.1518C85.8952 80.1123 86.5981 80.7511 86.6376 81.5786C86.6771 82.406 86.0384 83.1089 85.2109 83.1484L85.1393 81.6501L85.0677 80.1518ZM78.3665 83.5458C77.54 83.6025 76.824 82.9785 76.7673 82.1521C76.7106 81.3256 77.3346 80.6096 78.161 80.5528L78.2638 82.0493L78.3665 83.5458ZM71.2698 81.1033C72.0947 81.0279 72.8247 81.6355 72.9001 82.4605C72.9756 83.2855 72.368 84.0154 71.543 84.0909L71.4064 82.5971L71.2698 81.1033ZM64.7309 84.7975C63.908 84.8933 63.1633 84.3039 63.0675 83.481C62.9717 82.6581 63.5611 81.9134 64.384 81.8176L64.5574 83.3076L64.7309 84.7975ZM57.5197 82.7088C58.3397 82.591 59.1 83.1602 59.2178 83.9802C59.3356 84.8002 58.7663 85.5605 57.9463 85.6783L57.733 84.1935L57.5197 82.7088ZM51.1939 86.7475C50.3777 86.8891 49.6012 86.3423 49.4596 85.526C49.3179 84.7098 49.8648 83.9333 50.6811 83.7917L50.9375 85.2696L51.1939 86.7475ZM43.8686 85.0834C44.6799 84.9161 45.4733 85.4381 45.6406 86.2495C45.808 87.0608 45.2859 87.8542 44.4746 88.0215L44.1716 86.5525L43.8686 85.0834ZM37.8188 89.5116C37.0136 89.7065 36.2029 89.2118 36.0079 88.4067C35.813 87.6015 36.3077 86.7907 37.1128 86.5958L37.4658 88.0537L37.8188 89.5116ZM30.3911 88.3538C31.1885 88.1292 32.017 88.5936 32.2416 89.391C32.4662 90.1883 32.0019 91.0168 31.2045 91.2415L30.7978 89.7976L30.3911 88.3538ZM24.6921 93.2146C23.9043 93.4707 23.058 93.0397 22.8018 92.2518C22.5457 91.464 22.9767 90.6177 23.7646 90.3616L24.2283 91.7881L24.6921 93.2146ZM17.1927 92.6534C17.9688 92.3637 18.8328 92.758 19.1225 93.5341C19.4122 94.3102 19.0179 95.1743 18.2418 95.464L17.7172 94.0587L17.1927 92.6534ZM11.9235 97.9872C11.1615 98.3121 10.2803 97.9579 9.95534 97.1958C9.63035 96.4338 9.98464 95.5526 10.7467 95.2276L11.3351 96.6074L11.9235 97.9872ZM4.41478 98.1113C5.15998 97.7494 6.05746 98.0602 6.41935 98.8054C6.78123 99.5506 6.47049 100.448 5.72527 100.81L5.07003 99.4606L4.41478 98.1113ZM159.773 142.256L158.333 142.675C157.685 140.452 157.095 138.223 156.559 135.992L158.018 135.642L159.476 135.292C160.001 137.477 160.579 139.659 161.213 141.836L159.773 142.256ZM156.577 128.949L155.104 129.23C154.67 126.958 154.292 124.685 153.968 122.415L155.452 122.203L156.937 121.99C157.255 124.215 157.626 126.442 158.051 128.668L156.577 128.949ZM154.641 115.418L153.148 115.562C152.925 113.258 152.757 110.96 152.64 108.671L154.138 108.595L155.636 108.519C155.75 110.763 155.916 113.015 156.134 115.274L154.641 115.418ZM153.944 101.75L152.444 101.759C152.43 99.442 152.469 97.1379 152.558 94.8497L154.057 94.908L155.556 94.9664C155.468 97.2102 155.43 99.4695 155.444 101.741L153.944 101.75ZM154.476 88.0841L152.981 87.9587C153.175 85.6515 153.419 83.3641 153.712 81.1002L155.2 81.2928L156.687 81.4854C156.4 83.7048 156.16 85.9473 155.971 88.2096L154.476 88.0841ZM156.234 74.5232L154.757 74.2628C155.161 71.9713 155.615 69.7085 156.117 67.4782L157.58 67.8074L159.043 68.1367C158.552 70.3211 158.107 72.5381 157.711 74.7837L156.234 74.5232ZM159.242 61.1669L157.796 60.7676C158.417 58.5205 159.087 56.3127 159.803 54.1486L161.227 54.62L162.651 55.0914C161.951 57.2074 161.295 59.3671 160.688 61.5663L159.242 61.1669ZM163.546 48.187L162.149 47.6409C163 45.462 163.901 43.336 164.848 41.268L166.212 41.8923L167.575 42.5167C166.653 44.532 165.774 46.6058 164.943 48.7332L163.546 48.187ZM169.244 35.7658L167.921 35.0588C169.031 32.9821 170.19 30.9774 171.395 29.0508L172.667 29.8463L173.938 30.6417C172.771 32.5084 171.646 34.4541 170.567 36.4729L169.244 35.7658ZM176.51 24.1862L175.303 23.2955C176.715 21.3827 178.177 19.5697 179.686 17.8649L180.809 18.8589L181.932 19.8529C180.486 21.4878 179.079 23.2316 177.717 25.077L176.51 24.1862ZM185.599 13.9676L184.585 12.8622C186.354 11.2396 188.175 9.75922 190.042 8.43336L190.911 9.6563L191.779 10.8792C190.021 12.1281 188.297 13.529 186.613 15.073L185.599 13.9676ZM196.751 6.11775L196.075 4.77856C198.222 3.69504 200.418 2.81309 202.653 2.15012L203.08 3.5882L203.506 5.02628C201.453 5.63523 199.424 6.44901 197.426 7.45694L196.751 6.11775ZM209.791 2.31341L209.665 0.818684C212.022 0.620559 214.405 0.67057 216.803 0.984352L216.608 2.47167L216.413 3.95899C214.23 3.67325 212.062 3.62779 209.916 3.80814L209.791 2.31341ZM223.262 4.05334L223.752 2.63574C225.914 3.38339 228.073 4.35237 230.225 5.55096L229.494 6.86127L228.764 8.17159C226.759 7.05415 224.759 6.15843 222.772 5.47093L223.262 4.05334ZM235.186 10.6118L236.096 9.41934C237.877 10.7784 239.648 12.3032 241.404 13.9987L240.363 15.078L239.321 16.1573C237.642 14.537 235.959 13.0886 234.276 11.8043L235.186 10.6118ZM245.067 20.0803L246.205 19.1032C247.65 20.7867 249.084 22.5935 250.505 24.5267L249.297 25.415L248.088 26.3033C246.709 24.4275 245.322 22.6803 243.929 21.0575L245.067 20.0803ZM253.136 31.007L254.398 30.1958C255.03 31.1787 255.659 32.1883 256.284 33.225L255 34.0001L253.716 34.7753C253.105 33.7623 252.491 32.7767 251.874 31.8182L253.136 31.007ZM255 34.0001L256.284 33.225C256.931 34.2958 257.552 35.3473 258.149 36.38L256.85 37.1306L255.552 37.8812C254.965 36.8657 254.353 35.8305 253.716 34.7753L255 34.0001ZM260.108 43.0461L261.438 42.3528C262.598 44.5783 263.629 46.707 264.535 48.7428L263.165 49.3527L261.794 49.9625C260.916 47.9893 259.912 45.9165 258.777 43.7395L260.108 43.0461ZM265.697 55.7387L267.116 55.2522C267.942 57.6621 268.56 59.9265 268.974 62.053L267.502 62.3395L266.029 62.6261C265.646 60.6556 265.067 58.5257 264.278 56.2253L265.697 55.7387ZM268.086 69.1593L269.584 69.224C269.47 71.8777 268.922 74.2634 267.947 76.3889L266.584 75.7633L265.22 75.1376C266.014 73.4074 266.487 71.4098 266.587 69.0946L268.086 69.1593ZM262.436 81.128L263.4 82.2779C261.621 83.7674 259.509 84.9873 257.116 85.9822L256.54 84.5971L255.964 83.212C258.136 82.3091 259.973 81.2349 261.473 79.978L262.436 81.128ZM249.947 86.6323L250.275 88.0958C248.111 88.5816 245.793 88.9632 243.335 89.2552L243.158 87.7656L242.981 86.2761C245.356 85.994 247.571 85.6281 249.618 85.1687L249.947 86.6323ZM236.323 88.3361L236.402 89.834C234.183 89.9513 231.872 90.0166 229.478 90.037L229.465 88.537L229.452 87.0371C231.809 87.017 234.075 86.9528 236.244 86.8382L236.323 88.3361ZM222.577 88.4821L222.543 89.9818C220.283 89.9306 217.962 89.8491 215.582 89.7419L215.65 88.2435L215.717 86.745C218.078 86.8512 220.377 86.9319 222.611 86.9825L222.577 88.4821ZM208.795 87.8775L208.704 89.3748C206.461 89.2382 204.173 89.0844 201.845 88.9166L201.953 87.4205L202.06 85.9244C204.379 86.0915 206.656 86.2445 208.886 86.3803L208.795 87.8775ZM195.048 86.895L194.929 88.3902C192.679 88.2111 190.397 88.0226 188.084 87.8278L188.21 86.3331L188.336 84.8383C190.645 85.033 192.923 85.221 195.167 85.3997L195.048 86.895ZM181.357 85.7468L181.228 87.2412C178.955 87.0447 176.654 86.8445 174.333 86.6436L174.462 85.1491L174.592 83.6547C176.916 83.856 179.213 84.0558 181.486 84.2524L181.357 85.7468ZM167.642 84.5635L167.515 86.0581C165.239 85.8649 162.944 85.673 160.632 85.4845L160.754 83.9895L160.876 82.4945C163.192 82.6833 165.491 82.8755 167.768 83.0688L167.642 84.5635ZM153.913 83.4475L153.798 84.9431C151.523 84.7687 149.235 84.5995 146.933 84.4375L147.039 82.9412L147.144 81.4449C149.452 81.6074 151.747 81.7771 154.027 81.9519L153.913 83.4475ZM140.172 82.4833L140.078 83.9804C137.802 83.8375 135.516 83.7034 133.221 83.58L133.302 82.0821L133.382 80.5843C135.686 80.7083 137.982 80.8429 140.266 80.9863L140.172 82.4833ZM126.421 81.7466L126.355 83.2451C124.076 83.146 121.79 83.0589 119.499 82.9858L119.547 81.4866L119.595 79.9874C121.898 80.0608 124.195 80.1483 126.486 80.248L126.421 81.7466ZM112.66 81.3108L112.632 82.8105C110.348 82.7673 108.062 82.7396 105.774 82.7291L105.781 81.2292L105.788 79.7292C108.091 79.7397 110.391 79.7676 112.689 79.811L112.66 81.3108ZM98.897 81.2515L98.9139 82.7514C96.6272 82.7772 94.3411 82.822 92.0574 82.8876L92.0143 81.3882L91.9713 79.8888C94.2732 79.8228 96.5767 79.7776 98.8801 79.7516L98.897 81.2515ZM85.1393 81.6501L85.2109 83.1484C82.9247 83.2577 80.6427 83.3895 78.3665 83.5458L78.2638 82.0493L78.161 80.5528C80.4588 80.3951 82.7617 80.262 85.0677 80.1518L85.1393 81.6501ZM71.4064 82.5971L71.543 84.0909C69.2639 84.2993 66.9927 84.5343 64.7309 84.7975L64.5574 83.3076L64.384 81.8176C66.6713 81.5514 68.9671 81.3139 71.2698 81.1033L71.4064 82.5971ZM57.733 84.1935L57.9463 85.6783C55.6834 86.0034 53.432 86.3592 51.1939 86.7475L50.9375 85.2696L50.6811 83.7917C52.9489 83.3982 55.2291 83.0379 57.5197 82.7088L57.733 84.1935ZM44.1716 86.5525L44.4746 88.0215C42.2398 88.4825 40.0206 88.9785 37.8188 89.5116L37.4658 88.0537L37.1128 86.5958C39.349 86.0544 41.6016 85.5509 43.8686 85.0834L44.1716 86.5525ZM30.7978 89.7976L31.2045 91.2415C29.0132 91.8587 26.8418 92.5157 24.6921 93.2146L24.2283 91.7881L23.7646 90.3616C25.9534 89.65 28.1629 88.9814 30.3911 88.3538L30.7978 89.7976ZM17.7172 94.0587L18.2418 95.464C16.1108 96.2595 14.004 97.0999 11.9235 97.9872L11.3351 96.6074L10.7467 95.2276C12.8706 94.3218 15.02 93.4645 17.1927 92.6534L17.7172 94.0587ZM5.07003 99.4606L5.72527 100.81C4.70619 101.305 3.69425 101.812 2.68969 102.332L2.00024 101L1.31078 99.6677C2.33831 99.1359 3.37307 98.6172 4.41478 98.1113L5.07003 99.4606Z" fill="white"/>
</svg>
