<svg width="217" height="217" viewBox="0 0 217 217" fill="none" xmlns="http://www.w3.org/2000/svg">
<rect y="60.9178" width="167.403" height="167.403" rx="83.7016" transform="rotate(-21.3398 0 60.9178)" fill="#E6514A"/>
<path d="M140.264 137.307L151.955 86.6167L158.758 83.959L147.066 134.649L140.264 137.307ZM136.559 117.538C134.616 118.297 132.73 118.529 130.901 118.233C129.057 117.899 127.377 117.084 125.86 115.788C124.367 114.438 123.181 112.64 122.303 110.391C121.424 108.143 121.084 106.035 121.282 104.069C121.518 102.088 122.201 100.35 123.33 98.8543C124.459 97.359 125.995 96.2317 127.939 95.4723C129.882 94.713 131.776 94.5003 133.62 94.8343C135.463 95.1682 137.124 95.9908 138.603 97.302C140.082 98.6131 141.26 100.393 142.139 102.641C143.017 104.89 143.365 107.016 143.181 109.021C142.983 110.987 142.32 112.718 141.191 114.213C140.047 115.67 138.503 116.778 136.559 117.538ZM134.728 112.85C135.986 112.359 136.795 111.45 137.155 110.123C137.5 108.758 137.256 107.009 136.422 104.875C135.588 102.741 134.589 101.308 133.425 100.577C132.246 99.8075 131.028 99.6685 129.77 100.16C128.551 100.636 127.749 101.564 127.366 102.944C127.006 104.271 127.242 106.001 128.076 108.135C128.895 110.231 129.894 111.664 131.073 112.433C132.29 113.188 133.509 113.327 134.728 112.85ZM171.083 125.794C169.177 126.538 167.291 126.77 165.424 126.489C163.58 126.155 161.919 125.332 160.441 124.021C158.947 122.672 157.761 120.873 156.883 118.625C156.004 116.376 155.664 114.269 155.862 112.303C156.061 110.336 156.724 108.606 157.853 107.11C159.02 105.6 160.556 104.473 162.462 103.728C164.444 102.954 166.356 102.734 168.2 103.068C170.043 103.402 171.705 104.224 173.183 105.536C174.662 106.847 175.84 108.627 176.719 110.875C177.597 113.124 177.945 115.25 177.762 117.254C177.563 119.221 176.9 120.951 175.771 122.447C174.627 123.904 173.064 125.02 171.083 125.794ZM169.251 121.106C170.509 120.615 171.318 119.706 171.678 118.379C172.023 117.014 171.779 115.265 170.945 113.131C170.126 111.035 169.127 109.602 167.948 108.833C166.769 108.063 165.551 107.924 164.293 108.416C163.074 108.892 162.272 109.82 161.889 111.2C161.529 112.527 161.765 114.257 162.599 116.391C163.433 118.525 164.439 119.977 165.619 120.747C166.821 121.463 168.032 121.583 169.251 121.106Z" fill="white"/>
<path d="M99.8692 153.089L97.5242 147.086L107.264 126.479C108.051 124.898 108.56 123.557 108.789 122.457C109.018 121.357 109.087 120.408 108.994 119.61C108.94 118.796 108.794 118.085 108.556 117.475C107.93 115.874 106.901 114.871 105.469 114.464C104.059 114.004 102.306 114.184 100.21 115.003C98.5334 115.658 97.0975 116.592 95.9024 117.806C94.7455 119.005 93.9396 120.484 93.4847 122.243L85.042 120.534C85.6731 117.651 87.1 115.007 89.3228 112.602C91.5455 110.196 94.4481 108.293 98.0304 106.894C101.003 105.732 103.788 105.215 106.385 105.343C109.006 105.417 111.269 106.092 113.173 107.369C115.116 108.631 116.563 110.481 117.516 112.92C118.022 114.216 118.357 115.578 118.52 117.008C118.707 118.385 118.58 119.972 118.14 121.769C117.738 123.551 116.946 125.684 115.764 128.166L107.671 145.231L104.581 142.55L127.161 133.729L130.109 141.274L99.8692 153.089Z" fill="white"/>
<path d="M62.1974 120.892C65.894 119.448 69.374 118.967 72.6372 119.449C75.9004 119.932 78.8294 121.357 81.424 123.726C84.0037 126.056 86.1422 129.394 87.8395 133.738C89.6411 138.349 90.2907 142.598 89.7883 146.484C89.324 150.355 87.8951 153.725 85.5014 156.593C83.1077 159.461 79.8911 161.684 75.8515 163.262C73.7554 164.081 71.6463 164.642 69.524 164.944C67.4018 165.246 65.457 165.215 63.6896 164.851L64.4618 156.708C65.8647 157.039 67.2546 157.111 68.6313 156.924C69.9932 156.7 71.36 156.319 72.732 155.783C76.1619 154.443 78.4773 152.331 79.6782 149.446C80.9172 146.546 80.7327 143.038 79.1247 138.922C78.8567 138.236 78.5399 137.481 78.1742 136.658C77.8086 135.834 77.3857 135.033 76.9058 134.254L80.359 135.672C80.2918 137.412 79.8685 139.027 79.0891 140.517C78.2948 141.97 77.2206 143.268 75.8666 144.412C74.4976 145.518 72.8414 146.45 70.8978 147.21C68.3444 148.207 65.8187 148.601 63.3207 148.391C60.8608 148.166 58.6372 147.365 56.6501 145.989C54.701 144.598 53.2351 142.645 52.2525 140.13C51.1805 137.386 50.9243 134.763 51.4839 132.26C52.0816 129.742 53.3153 127.503 55.185 125.543C57.078 123.529 59.4154 121.979 62.1974 120.892ZM65.4714 127.586C64.1375 128.107 63.072 128.809 62.2747 129.691C61.4625 130.536 60.9493 131.527 60.7349 132.665C60.5057 133.765 60.6294 134.925 61.1058 136.144C61.8205 137.973 63.0034 139.202 64.6547 139.831C66.3292 140.407 68.1955 140.293 70.2534 139.489C71.5872 138.968 72.6718 138.258 73.5072 137.361C74.3659 136.411 74.9023 135.366 75.1166 134.228C75.331 133.09 75.2148 131.95 74.7681 130.806C74.3215 129.663 73.6411 128.765 72.727 128.112C71.8361 127.406 70.7794 127.006 69.5569 126.912C68.3195 126.781 66.9577 127.005 65.4714 127.586Z" fill="white"/>
<path d="M153.473 66.3847C152.27 66.8547 151.098 67.0164 149.959 66.8697C148.813 66.7084 147.792 66.2789 146.893 65.5814C145.995 64.8838 145.32 63.9555 144.867 62.7964C144.408 61.6227 144.276 60.4823 144.469 59.3752C144.656 58.2535 145.119 57.2524 145.858 56.372C146.596 55.4917 147.567 54.8165 148.77 54.3464C149.987 53.8707 151.166 53.7061 152.306 53.8528C153.46 53.9937 154.476 54.4085 155.354 55.0971C156.246 55.78 156.925 56.7157 157.389 57.9041C157.842 59.0632 157.975 60.2036 157.787 61.3253C157.614 62.4413 157.154 63.4497 156.407 64.3505C155.669 65.2308 154.691 65.9089 153.473 66.3847ZM152.553 64.0298C153.228 63.7662 153.772 63.3844 154.186 62.8846C154.599 62.3849 154.844 61.7989 154.919 61.1267C155.01 60.4488 154.909 59.7357 154.616 58.9875C154.318 58.2245 153.909 57.6318 153.389 57.2093C152.878 56.7664 152.301 56.5015 151.658 56.4144C151.015 56.3273 150.363 56.4127 149.703 56.6707C149.028 56.9343 148.484 57.3161 148.07 57.8159C147.672 58.3099 147.427 58.8959 147.337 59.5738C147.241 60.237 147.342 60.9501 147.64 61.713C147.932 62.4613 148.341 63.054 148.867 63.4912C149.393 63.9283 149.97 64.1933 150.598 64.2861C151.241 64.3732 151.893 64.2878 152.553 64.0298Z" fill="white"/>
<path d="M140.73 69.7144L137.548 61.5715L133.037 63.3341L133.71 65.2526C133.945 65.939 134.156 66.6091 134.343 67.2629C134.526 67.902 134.654 68.5115 134.728 69.0912C134.797 69.6564 134.772 70.1563 134.654 70.5912C134.537 71.0261 134.293 71.3752 133.922 71.6384L131.03 72.2864C131.47 72.1144 131.768 71.8375 131.923 71.4556C132.087 71.0532 132.145 70.574 132.097 70.0178C132.057 69.4412 131.948 68.8158 131.77 68.1416C131.585 67.4527 131.37 66.7504 131.124 66.0347L129.705 61.9471L139.388 58.164L143.481 68.6396L140.73 69.7144ZM132.546 77.4015L130.612 72.4498L144.807 66.904L146.741 71.8557L144.166 72.8617L143.143 70.2428L134.076 73.7852L135.099 76.4041L132.546 77.4015Z" fill="white"/>
<path d="M121.091 78.8587L120.162 76.4819L119.81 76.0359L118.185 71.8765C117.87 71.0695 117.384 70.5405 116.728 70.2895C116.066 70.0239 115.244 70.0831 114.261 70.4671C113.601 70.7251 112.988 71.0828 112.423 71.5404C111.872 71.9923 111.448 72.4876 111.151 73.0264L109.291 71.445C109.732 70.7144 110.34 70.0626 111.114 69.4896C111.897 68.8963 112.758 68.4162 113.697 68.0493C115.399 67.3844 116.873 67.2822 118.118 67.7427C119.372 68.1828 120.332 69.2538 120.997 70.9558L123.688 77.8442L121.091 78.8587ZM117.454 80.4573C116.573 80.8012 115.746 80.9554 114.971 80.9199C114.19 80.8697 113.514 80.6522 112.94 80.2673C112.376 79.862 111.962 79.322 111.699 78.647C111.441 77.9868 111.363 77.3324 111.464 76.6839C111.581 76.0296 111.938 75.4079 112.537 74.819C113.135 74.23 114.029 73.7034 115.217 73.2391L118.628 71.9064L119.342 73.733L116.129 74.9883C115.19 75.3552 114.619 75.7557 114.417 76.1899C114.209 76.6094 114.191 77.0393 114.363 77.4794C114.557 77.9783 114.91 78.297 115.421 78.4357C115.932 78.5744 116.539 78.5062 117.244 78.231C117.918 77.9673 118.46 77.5783 118.868 77.0638C119.29 76.5436 119.501 75.9369 119.501 75.2436L120.608 76.7137C120.613 77.5064 120.346 78.2282 119.805 78.8791C119.279 79.5242 118.495 80.0503 117.454 80.4573Z" fill="white"/>
<path d="M109.001 83.5821L102.552 79.6076L104.255 77.3441L112.236 82.3182L109.001 83.5821ZM100.572 86.8752L95.9805 75.1231L98.7314 74.0483L103.323 85.8004L100.572 86.8752ZM100.669 81.4089L99.7743 79.1201L103.758 77.5639L104.652 79.8527L100.669 81.4089ZM105.095 78.7154L102.4 79.4133L104.409 71.83L107.358 70.6779L105.095 78.7154Z" fill="white"/>
<path d="M93.1242 88.3131L89.943 80.1702L85.4314 81.9328L86.1048 83.8513C86.3391 84.5377 86.5502 85.2078 86.738 85.8616C86.92 86.5007 87.0482 87.1102 87.1225 87.6899C87.1911 88.255 87.1666 88.755 87.049 89.1899C86.9314 89.6248 86.6873 89.9739 86.3166 90.2371L83.4243 90.8851C83.8644 90.7131 84.1621 90.4362 84.3173 90.0542C84.4814 89.6519 84.5394 89.1727 84.4912 88.6165C84.452 88.0399 84.343 87.4145 84.1641 86.7403C83.9795 86.0514 83.7643 85.3491 83.5185 84.6334L82.0991 80.5458L91.7825 76.7627L95.8752 87.2383L93.1242 88.3131ZM84.9407 96.0002L83.0061 91.0485L97.2011 85.5027L99.1357 90.4544L96.5608 91.4604L95.5376 88.8415L86.4704 92.3839L87.4936 95.0028L84.9407 96.0002Z" fill="white"/>
<path d="M70.1168 98.7731L65.5254 87.021L68.2764 85.9462L71.3029 93.693L74.7686 83.4098L77.2775 82.4296L81.8689 94.1817L79.1179 95.2565L76.0914 87.5098L72.6476 97.7843L70.1168 98.7731Z" fill="white"/>
<path d="M64.9402 100.795L58.4916 96.8208L60.1948 94.5573L68.1754 99.5314L64.9402 100.795ZM56.5113 104.088L51.9199 92.3363L54.6709 91.2615L59.2623 103.014L56.5113 104.088ZM56.608 98.6221L55.7138 96.3333L59.6972 94.7771L60.5914 97.0659L56.608 98.6221ZM61.0349 95.9286L58.3396 96.6265L60.3489 89.0432L63.2979 87.8911L61.0349 95.9286Z" fill="white"/>
<path d="M48.1305 107.616C46.9567 108.075 45.7892 108.311 44.6278 108.325C43.4753 108.319 42.3874 108.11 41.364 107.698C40.3495 107.266 39.4478 106.645 38.6586 105.838C37.8695 105.03 37.2514 104.054 36.8043 102.909C36.3572 101.765 36.1499 100.628 36.1824 99.4994C36.2149 98.3706 36.4677 97.3079 36.9408 96.3113C37.4082 95.3 38.0662 94.4088 38.9149 93.6375C39.7578 92.8516 40.7735 92.2265 41.9619 91.7622C43.2236 91.2693 44.4614 91.0394 45.675 91.0726C46.8829 91.0911 48.0126 91.3854 49.064 91.9555L47.8946 94.4163C47.102 94.0326 46.3037 93.8287 45.4994 93.8047C44.6895 93.766 43.881 93.9042 43.0741 94.2195C42.2671 94.5348 41.5778 94.9563 41.0061 95.4841C40.449 96.0061 40.0157 96.6066 39.706 97.2857C39.411 97.959 39.253 98.6803 39.2322 99.4494C39.2261 100.213 39.3778 100.991 39.6873 101.783C39.9968 102.575 40.4126 103.25 40.9346 103.807C41.4714 104.358 42.0764 104.781 42.7497 105.076C43.4377 105.366 44.1634 105.513 44.9268 105.52C45.7049 105.52 46.4974 105.363 47.3043 105.047C48.1113 104.732 48.8022 104.293 49.3772 103.73C49.9464 103.153 50.3894 102.447 50.7061 101.613L53.2426 102.651C52.8504 103.768 52.2195 104.75 51.3497 105.598C50.48 106.445 49.4069 107.118 48.1305 107.616Z" fill="white"/>
</svg>
