<svg width="40" height="41" viewBox="0 0 40 41" fill="none" xmlns="http://www.w3.org/2000/svg">
<path d="M30.9665 38.6252H9.13256C5.73061 38.6252 2.96289 35.8575 2.96289 32.4556V10.6216C2.96289 7.21969 5.73061 4.45197 9.13256 4.45197H30.9665C34.3685 4.45197 37.1362 7.21969 37.1362 10.6216V32.4556C37.1362 35.8575 34.3685 38.6252 30.9665 38.6252ZM9.13256 6.66866C6.95289 6.66866 5.17958 8.44197 5.17958 10.6216V32.4556C5.17958 34.6352 6.95289 36.4085 9.13256 36.4085H30.9665C33.1462 36.4085 34.9195 34.6352 34.9195 32.4556V10.6216C34.9195 8.44197 33.1462 6.66869 30.9665 6.66869L9.13256 6.66866Z" fill="#3035C4"/>
<path d="M35.1117 13.8674H4.07125C3.45917 13.8674 2.96289 13.3712 2.96289 12.7591C2.96289 12.1469 3.45914 11.6507 4.07125 11.6507H35.1117C35.7239 11.6507 36.2201 12.1469 36.2201 12.7591C36.2201 13.3712 35.7239 13.8674 35.1117 13.8674Z" fill="#3035C4"/>
<path d="M10.0127 8.37262C9.40049 8.37262 8.9043 7.87642 8.9043 7.26426V3.83059C8.9043 3.21848 9.40049 2.72223 10.0127 2.72223C10.6248 2.72223 11.121 3.21848 11.121 3.83059V7.26429C11.121 7.87645 10.6248 8.37262 10.0127 8.37262Z" fill="#3035C4"/>
<path d="M15.3798 8.37262C14.7677 8.37262 14.2715 7.87642 14.2715 7.26426V3.83059C14.2715 3.21848 14.7677 2.72223 15.3798 2.72223C15.992 2.72223 16.4882 3.21848 16.4882 3.83059V7.26429C16.4882 7.87645 15.992 8.37262 15.3798 8.37262Z" fill="#3035C4"/>
<path d="M20.747 8.37262C20.1349 8.37262 19.6387 7.87642 19.6387 7.26426V3.83059C19.6387 3.21848 20.1349 2.72223 20.747 2.72223C21.3592 2.72223 21.8554 3.21848 21.8554 3.83059V7.26429C21.8554 7.87645 21.3592 8.37262 20.747 8.37262Z" fill="#3035C4"/>
<path d="M26.1142 8.37262C25.5021 8.37262 25.0059 7.87642 25.0059 7.26426V3.83059C25.0059 3.21848 25.5021 2.72223 26.1142 2.72223C26.7264 2.72223 27.2226 3.21848 27.2226 3.83059V7.26429C27.2226 7.87645 26.7264 8.37262 26.1142 8.37262Z" fill="#3035C4"/>
<path d="M31.4814 8.37262C30.8693 8.37262 30.373 7.87642 30.373 7.26426V3.83059C30.373 3.21848 30.8693 2.72223 31.4814 2.72223C32.0936 2.72223 32.5898 3.21848 32.5898 3.83059V7.26429C32.5898 7.87645 32.0936 8.37262 31.4814 8.37262Z" fill="#3035C4"/>
<path d="M14.4204 17.5896H11.3105V20.6994H14.4204V17.5896Z" fill="#3035C4"/>
<path d="M21.6059 17.5896H18.4961V20.6994H21.6059V17.5896Z" fill="#3035C4"/>
<path d="M28.7895 17.5896H25.6797V20.6994H28.7895V17.5896Z" fill="#3035C4"/>
<path d="M14.4204 23.8653H11.3105V26.9752H14.4204V23.8653Z" fill="#3035C4"/>
<path d="M21.6059 23.8653H18.4961V26.9752H21.6059V23.8653Z" fill="#3035C4"/>
<path d="M28.7895 23.8653H25.6797V26.9752H28.7895V23.8653Z" fill="#3035C4"/>
<path d="M14.4204 30.141H11.3105V33.2509H14.4204V30.141Z" fill="#3035C4"/>
<path d="M21.6059 30.141H18.4961V33.2509H21.6059V30.141Z" fill="#3035C4"/>
<path d="M28.7895 30.141H25.6797V33.2509H28.7895V30.141Z" fill="#3035C4"/>
</svg>
