<svg width="12" height="8" viewBox="0 0 12 8" fill="none" xmlns="http://www.w3.org/2000/svg">
<path d="M10.9876 0.757812C11.1282 0.903646 11.1946 1.07943 11.1868 1.28516C11.179 1.49089 11.0996 1.66406 10.9485 1.80469L5.39383 6.98438C5.25321 7.11979 5.08524 7.1875 4.88993 7.1875C4.69461 7.1875 4.52665 7.11979 4.38602 6.98438L1.05008 3.875C0.899042 3.73438 0.820917 3.5625 0.815709 3.35938C0.8105 3.15625 0.878209 2.97917 1.01883 2.82812C1.15425 2.67708 1.32482 2.59896 1.53055 2.59375C1.73628 2.58854 1.91467 2.65365 2.06571 2.78906L4.88602 5.42969L9.94071 0.71875C10.0918 0.578125 10.2688 0.511719 10.472 0.519531C10.6751 0.527344 10.847 0.606771 10.9876 0.757812Z" fill="white"/>
</svg>
