<svg width="103" height="110" viewBox="0 0 103 110" fill="none" xmlns="http://www.w3.org/2000/svg">
<g clip-path="url(#clip0_2870_18940)">
<path d="M63.4898 10.4045L84.0407 45.9999C72.0572 45.7994 64.7002 53.6071 57.3436 61.4147C50.5355 68.6389 43.7273 75.8632 33.2538 76.744C32.7976 76.781 32.3444 76.8025 31.8719 76.8112C31.468 76.8306 31.0683 76.8351 30.648 76.8262L10.097 41.2309C10.5173 41.2398 10.9175 41.2362 11.3215 41.2168C11.7934 41.2072 12.2461 41.1848 12.7022 41.1477C23.1768 40.2688 29.9845 33.0436 36.7922 25.8196C44.1493 18.0119 51.5063 10.2042 63.4898 10.4045Z" fill="#DA2A35"/>
<path d="M46.9781 55.2948C43.6209 58.7132 38.6995 57.6775 36.3842 53.6672C34.0824 49.6804 35.2595 44.2309 38.6172 40.8134C40.4119 39.0177 42.5092 38.2532 44.4472 38.5503C41.5974 37.3662 38.2482 38.2233 35.3984 40.881C31.0428 45.0582 29.1505 51.2829 32.0671 56.3345C35.0108 61.4332 41.6543 63.4378 46.0105 59.2615C48.8603 56.6038 50.2131 52.289 50.0642 48.2792C49.8077 50.8945 48.7728 53.4992 46.9781 55.2948Z" fill="white"/>
<path d="M46.4635 37.5868C47.502 37.826 48.5427 38.0703 49.5871 38.3198C50.1998 37.082 50.8213 35.8605 51.4594 34.6659C51.4778 36.0336 51.5006 37.4088 51.5283 38.7924C52.5786 39.0537 53.6337 39.3236 54.6975 39.6073C53.6441 40.1677 52.6089 40.7579 51.5827 41.3654C51.6147 42.7566 51.6506 44.1545 51.6874 45.5542C51.0221 44.5399 50.3575 43.5253 49.6918 42.5112C48.6763 43.1364 47.6663 43.7712 46.6547 44.4029C47.2555 43.1444 47.8548 41.8828 48.4589 40.63C47.794 39.6154 47.1283 38.6013 46.4635 37.5868Z" fill="white"/>
<path d="M33.2548 76.7444C32.8318 76.7785 32.4122 76.7995 31.9772 76.8092L11.4268 41.2148C11.8613 41.2042 12.2803 41.1823 12.7033 41.1481L33.2548 76.7444Z" fill="#B71F33"/>
<path d="M46.1689 108.236L49.1329 106.524L7.45911 34.3434L4.49512 36.0547L46.1689 108.236Z" fill="#ECE6EF"/>
<path d="M47.7636 107.315L46.5474 108.017L7.22559 39.9097C7.64222 39.8339 8.05258 39.6862 8.43721 39.4642C8.4755 39.4421 8.51389 39.4199 8.55071 39.3961L47.7636 107.315Z" fill="#8292AA"/>
<path d="M8.55105 39.3959L7.98308 38.4121C8.46439 38.1116 8.85619 37.7182 9.14761 37.2682L9.7161 38.2529C9.42527 38.7012 9.03311 39.0949 8.55105 39.3959ZM7.22592 39.9094C7.06835 39.9375 6.90998 39.956 6.75209 39.9642L6.18577 38.9833C6.34404 38.9749 6.50202 38.9566 6.65904 38.9276L7.22592 39.9094Z" fill="#C59D43"/>
<path d="M8.43768 39.4641C8.05305 39.6862 7.64269 39.8338 7.22606 39.9096L6.65918 38.9277C7.07376 38.8519 7.48178 38.7043 7.86717 38.4818C7.90621 38.4593 7.94526 38.4367 7.98322 38.4123L8.55119 39.396C8.51436 39.4198 8.47597 39.442 8.43768 39.4641Z" fill="#C7AB6F"/>
<path d="M9.25098 33.3125C10.2965 35.1234 9.67616 37.437 7.86725 38.4814C6.05712 39.5265 3.74334 38.9068 2.69783 37.0959C1.65395 35.2879 2.27365 32.9733 4.08378 31.9283C5.89269 30.8839 8.2071 31.5044 9.25098 33.3125Z" fill="#8292AA"/>
<path d="M5.02558 35.7485C4.31895 36.1564 3.43034 35.9388 3.04154 35.2654C2.65165 34.5901 2.90913 33.7146 3.61576 33.3066C4.32087 32.8995 5.2067 33.1149 5.59659 33.7902C5.98539 34.4636 5.73069 35.3414 5.02558 35.7485Z" fill="#ECE6EF"/>
</g>
<defs>
<clipPath id="clip0_2870_18940">
<rect width="67.236" height="88" fill="white" transform="translate(-0.102539 33.5591) rotate(-30)"/>
</clipPath>
</defs>
</svg>
