<svg width="61" height="61" viewBox="0 0 61 61" fill="none" xmlns="http://www.w3.org/2000/svg">
<path fill-rule="evenodd" clip-rule="evenodd" d="M30.5003 11.5126C26.6131 11.5126 23.4618 14.6842 23.4618 18.5965C23.4618 22.5088 26.6131 25.6805 30.5003 25.6805C34.3875 25.6805 37.5388 22.5088 37.5388 18.5965C37.5388 14.6842 34.3875 11.5126 30.5003 11.5126ZM18.7695 18.5965C18.7695 12.076 24.0216 6.79004 30.5003 6.79004C36.9791 6.79004 42.2312 12.076 42.2312 18.5965C42.2312 25.1171 36.9791 30.4031 30.5003 30.4031C24.0216 30.4031 18.7695 25.1171 18.7695 18.5965Z" fill="#3035C4"/>
<path fill-rule="evenodd" clip-rule="evenodd" d="M25.8725 39.8476C21.0861 39.8476 17.206 43.7528 17.206 48.57C17.206 48.664 17.2139 48.7396 17.2244 48.7963C17.2258 48.8039 17.2272 48.811 17.2286 48.8174C18.4816 49.5155 22.0275 50.867 30.5009 50.867C38.9741 50.867 42.52 49.5155 43.7733 48.8174C43.7745 48.811 43.776 48.8039 43.7772 48.7963C43.7879 48.7396 43.7958 48.664 43.7958 48.57C43.7958 43.7528 39.9156 39.8476 35.1292 39.8476H25.8725ZM12.5137 48.57C12.5137 41.1445 18.4946 35.125 25.8725 35.125H35.1292C42.5072 35.125 48.4879 41.1445 48.4879 48.57C48.4879 49.8949 48.042 51.7722 46.2694 52.8208C44.1158 54.0948 39.6707 55.5896 30.5009 55.5896C21.331 55.5896 16.8861 54.0948 14.7323 52.8208C12.9598 51.7722 12.5137 49.8949 12.5137 48.57Z" fill="#3035C4"/>
<path fill-rule="evenodd" clip-rule="evenodd" d="M44.6583 11.6833C44.9965 10.4244 46.2846 9.67962 47.5354 10.0199C51.817 11.1845 54.7437 15.4163 54.7437 20.1703C54.7437 25.1949 51.3177 29.7936 46.4209 30.3856C45.1344 30.5412 43.9662 29.6177 43.8119 28.3229C43.6573 27.0282 44.575 25.8524 45.8615 25.6969C48.0032 25.4379 50.0516 23.2296 50.0516 20.1703C50.0516 17.2662 48.286 15.1161 46.3111 14.5789C45.0603 14.2386 44.3204 12.9422 44.6583 11.6833Z" fill="#3035C4"/>
<path fill-rule="evenodd" clip-rule="evenodd" d="M50.0946 37.0345C50.3426 35.7548 51.5748 34.9194 52.8463 35.1692C57.582 36.0985 60.9999 40.2742 60.9999 45.1302V46.4066C60.9999 47.6187 60.6387 49.4499 58.9573 50.5314C57.9062 51.2076 56.3135 51.9042 53.9053 52.3946C52.6352 52.6533 51.3975 51.8267 51.1404 50.5485C50.8836 49.2702 51.7047 48.0243 52.9747 47.766C54.7608 47.4021 55.77 46.9449 56.2901 46.6387L56.2907 46.6344C56.3004 46.5774 56.3074 46.5014 56.3074 46.4066V45.1302C56.3074 42.5337 54.4802 40.3014 51.9481 39.8042C50.6765 39.5548 49.8466 38.3146 50.0946 37.0345Z" fill="#3035C4"/>
<path fill-rule="evenodd" clip-rule="evenodd" d="M16.3432 28.6572C16.0052 29.9159 14.7171 30.6607 13.4662 30.3203C9.18472 29.1558 6.25781 24.9241 6.25781 20.17C6.25781 15.1455 9.68394 10.5466 14.5806 9.95459C15.8671 9.79904 17.0353 10.7226 17.1898 12.0174C17.3443 13.3122 16.4267 14.4879 15.1402 14.6434C12.9984 14.9024 10.9501 17.1108 10.9501 20.17C10.9501 23.0741 12.7155 25.2244 14.6905 25.7615C15.9413 26.1016 16.6813 27.3981 16.3432 28.6572Z" fill="#3035C4"/>
<path fill-rule="evenodd" clip-rule="evenodd" d="M10.9053 37.0345C10.6573 35.7548 9.42527 34.9194 8.15348 35.1692C3.41783 36.0985 0 40.2742 0 45.1302L0 46.4066C0 47.6187 0.361059 49.4499 2.04253 50.5314C3.09356 51.2076 4.68642 51.9042 7.09458 52.3946C8.3646 52.6533 9.60244 51.8267 9.8594 50.5485C10.1163 49.2702 9.29509 48.0243 8.02507 47.766C6.23896 47.4021 5.2299 46.9449 4.7099 46.6387L4.7092 46.6344C4.6995 46.5774 4.6923 46.5014 4.6923 46.4066V45.1302C4.6923 42.5337 6.51968 40.3014 9.05167 39.8042C10.3235 39.5548 11.1534 38.3146 10.9053 37.0345Z" fill="#3035C4"/>
</svg>
