<svg width="60" height="61" viewBox="0 0 60 61" fill="none" xmlns="http://www.w3.org/2000/svg">
<g clip-path="url(#clip0_10716_7977)">
<path d="M38.75 0.689941C36.68 0.689941 35 2.36994 35 4.43994C35 6.50994 36.68 8.18994 38.75 8.18994C40.82 8.18994 42.5 6.50994 42.5 4.43994C42.5 2.36994 40.82 0.689941 38.75 0.689941ZM56.25 13.1899C54.18 13.1899 52.5 14.8699 52.5 16.9399C52.5 19.0099 54.18 20.6899 56.25 20.6899C58.32 20.6899 60 19.0099 60 16.9399C60 14.8699 58.32 13.1899 56.25 13.1899ZM38.75 20.6899H44.5825L56.25 0.689941H50.4175L38.75 20.6899ZM28.75 13.1899C28.75 17.3324 22.315 20.6899 14.375 20.6899C6.435 20.6899 0 17.3324 0 13.1899C0 9.04744 6.435 5.68994 14.375 5.68994C22.315 5.68994 28.75 9.04744 28.75 13.1899ZM28.75 46.9399V51.9399C28.75 56.9274 22.57 60.6899 14.375 60.6899C6.18 60.6899 0 56.9274 0 51.9399V46.9399C0 51.8674 5.99 55.6899 14.375 55.6899C22.76 55.6899 28.75 51.8674 28.75 46.9399ZM28.75 36.9399V41.9399C28.75 46.9274 22.57 50.6899 14.375 50.6899C6.18 50.6899 0 46.9274 0 41.9399V36.9399C0 41.8674 5.99 45.6899 14.375 45.6899C22.76 45.6899 28.75 41.8674 28.75 36.9399ZM28.75 26.9399V31.9399C28.75 36.9274 22.57 40.6899 14.375 40.6899C6.18 40.6899 0 36.9274 0 31.9399V26.9399C0 31.8674 5.99 35.6899 14.375 35.6899C22.76 35.6899 28.75 31.8674 28.75 26.9399ZM28.75 16.9399V21.9399C28.75 26.9274 22.57 30.6899 14.375 30.6899C6.18 30.6899 0 26.9274 0 21.9399V16.9399C0 21.8674 5.99 25.6899 14.375 25.6899C22.76 25.6899 28.75 21.8674 28.75 16.9399ZM57.5 33.1899C57.5 37.3324 51.065 40.6899 43.125 40.6899C35.185 40.6899 28.75 37.3324 28.75 33.1899C28.75 29.0474 35.185 25.6899 43.125 25.6899C51.065 25.6899 57.5 29.0474 57.5 33.1899ZM57.5 46.9399V51.9399C57.5 56.9274 51.32 60.6899 43.125 60.6899C34.93 60.6899 28.75 56.9274 28.75 51.9399V46.9399C28.75 51.8674 34.74 55.6899 43.125 55.6899C51.51 55.6899 57.5 51.8674 57.5 46.9399ZM57.5 36.9399V41.9399C57.5 46.9274 51.32 50.6899 43.125 50.6899C34.93 50.6899 28.75 46.9274 28.75 41.9399V36.9399C28.75 41.8674 34.74 45.6899 43.125 45.6899C51.51 45.6899 57.5 41.8674 57.5 36.9399Z" fill="#3035C4"/>
</g>
<defs>
<clipPath id="clip0_10716_7977">
<rect width="60" height="60" fill="white" transform="translate(0 0.689941)"/>
</clipPath>
</defs>
</svg>
