<svg width="60" height="61" viewBox="0 0 60 61" fill="none" xmlns="http://www.w3.org/2000/svg">
<g clip-path="url(#clip0_10716_7997)">
<path d="M44.9999 21.9401C44.9999 23.5977 44.3414 25.1875 43.1693 26.3596C41.9972 27.5317 40.4075 28.1901 38.7499 28.1901C37.0923 28.1901 35.5026 27.5317 34.3305 26.3596C33.1584 25.1875 32.4999 23.5977 32.4999 21.9401C32.4999 20.2825 33.1584 18.6928 34.3305 17.5207C35.5026 16.3486 37.0923 15.6901 38.7499 15.6901C40.4075 15.6901 41.9972 16.3486 43.1693 17.5207C44.3414 18.6928 44.9999 20.2825 44.9999 21.9401ZM44.9849 39.1051C44.8476 43.0773 43.8559 46.9732 42.0774 50.5276C40.4387 53.6266 37.9782 56.2143 34.9657 58.007C31.9533 59.7996 28.5052 60.728 24.9999 60.6901H22.4999V46.9401C22.4887 44.6229 21.5633 42.4038 19.9248 40.7653C18.2862 39.1268 16.0671 38.2013 13.7499 38.1901H-7.81119e-05V35.6901C-0.0379239 32.1848 0.890407 28.7368 2.68307 25.7243C4.47574 22.7118 7.06349 20.2513 10.1624 18.6126C13.7168 16.8341 17.6128 15.8425 21.5849 15.7051C25.227 11.0007 29.9043 7.19896 35.2537 4.59496C40.603 1.99095 46.4805 0.654771 52.4299 0.690137C53.4199 0.683882 54.4014 0.873095 55.3181 1.24693C56.2347 1.62076 57.0686 2.17186 57.7719 2.86863C58.4752 3.56539 59.034 4.39413 59.4163 5.30731C59.7987 6.22049 59.997 7.20015 59.9999 8.19014C60.0423 14.1507 58.7096 20.0407 56.1055 25.4024C53.5013 30.7642 49.6959 35.4532 44.9849 39.1051ZM5.20992 33.1901H10.8649C12.7215 29.0551 14.9025 25.0735 17.3874 21.2826C15.6615 21.6842 13.989 22.2884 12.4049 23.0826C10.4998 24.0887 8.85668 25.5269 7.60726 27.2821C6.35783 29.0372 5.5368 31.0606 5.20992 33.1901ZM39.4074 43.3026C35.6166 45.7876 31.635 47.9685 27.4999 49.8251V55.4801C29.6294 55.1533 31.6528 54.3322 33.408 53.0828C35.1632 51.8334 36.6014 50.1903 37.6074 48.2851C38.4017 46.701 39.0059 45.0286 39.4074 43.3026ZM54.9999 8.12014C54.9817 7.4693 54.7103 6.85126 54.2434 6.39745C53.7765 5.94364 53.151 5.68988 52.4999 5.69014C39.5999 6.05764 30.8749 11.0001 22.4549 22.7451C20.1053 26.1281 18.0391 29.6995 16.2774 33.4226C19.0072 33.931 21.5191 35.254 23.4826 37.2175C25.446 39.1809 26.769 41.6928 27.2774 44.4226C31.0006 42.661 34.5719 40.5948 37.9549 38.2451C49.6899 29.8151 54.6324 21.0901 54.9999 8.12014ZM15.3049 45.3876C16.7018 46.7989 17.4854 48.7044 17.4854 50.6901C17.4854 52.6759 16.7018 54.5814 15.3049 55.9926C13.0374 58.2576 6.24992 59.6551 3.43492 60.1526L-0.0800781 60.7701L0.537422 57.2551C1.03742 54.4401 2.43242 47.6526 4.69742 45.3851C6.12679 44.0218 8.02637 43.2614 10.0017 43.2619C11.977 43.2623 13.8762 44.0236 15.3049 45.3876ZM12.4999 50.6901C12.5008 50.3617 12.4365 50.0364 12.3108 49.733C12.1851 49.4296 12.0004 49.1541 11.7674 48.9226C11.2986 48.454 10.6628 48.1907 9.99992 48.1907C9.33701 48.1907 8.70124 48.454 8.23242 48.9226C7.27928 50.6433 6.60985 52.5064 6.24992 54.4401C8.18444 54.0787 10.0482 53.4084 11.7699 52.4551C12.0021 52.2237 12.1862 51.9486 12.3115 51.6456C12.4368 51.3427 12.5008 51.018 12.4999 50.6901Z" fill="#3035C4"/>
</g>
<defs>
<clipPath id="clip0_10716_7997">
<rect width="60" height="60" fill="white" transform="translate(0 0.689941)"/>
</clipPath>
</defs>
</svg>
