<svg width="60" height="61" viewBox="0 0 60 61" fill="none" xmlns="http://www.w3.org/2000/svg">
<g clip-path="url(#clip0_10716_8004)">
<path d="M57.5 51.94C57.5 49.4225 59.3125 47.41 59.32 47.405C60.18 46.42 60.17 44.9825 59.3325 43.99C59.3125 43.97 57.5 41.96 57.5 39.4425C57.5 36.925 59.3125 34.9125 59.32 34.9075C60.0025 34.18 60.19 33.1175 59.795 32.2025C59.4 31.2875 58.4975 30.6925 57.5 30.6925H43.75C42.37 30.6925 41.25 31.8125 41.25 33.1925C41.25 34.5725 42.37 35.6925 43.75 35.6925H53.17C52.7775 36.785 52.5 38.05 52.5 39.4425C52.5 40.835 52.7875 42.0975 53.1825 43.1925H8.75C6.6825 43.1925 5 41.51 5 39.4425C5 37.375 6.6825 35.6925 8.75 35.6925H16.25C17.63 35.6925 18.75 34.5725 18.75 33.1925C18.75 31.8125 17.63 30.6925 16.25 30.6925H8.75C3.925 30.6925 0 34.6175 0 39.4425C0 41.8925 1.0175 44.1025 2.645 45.6925C1.0175 47.2825 0 49.4925 0 51.9425C0 56.7675 3.925 60.6925 8.75 60.6925H57.5C58.49 60.6925 59.3825 60.1 59.7825 59.1925C60.1825 58.285 60.0025 57.22 59.3325 56.49C59.3125 56.47 57.5 54.4575 57.5 51.94ZM8.75 55.69C6.6825 55.69 5 54.0075 5 51.94C5 49.8725 6.6825 48.19 8.75 48.19H53.1825C52.7875 49.285 52.5 50.5425 52.5 51.94C52.5 53.3375 52.7775 54.5975 53.17 55.69H8.75ZM22.5825 28.665C23.2925 29.0675 23.75 29.96 23.75 31.0025C23.75 33.5875 25.845 35.69 28.4225 35.69H31.5775C34.155 35.69 36.25 33.595 36.25 30.885C36.25 29.94 36.695 29.075 37.385 28.685C42.0825 26.03 45 21.05 45 15.69C45 11.1475 42.9725 6.89751 39.4425 4.03251C35.91 1.17001 31.2875 0.0775052 26.76 1.03251C20.9925 2.25001 16.3775 6.97251 15.2775 12.785C14.0575 19.215 16.925 25.4475 22.585 28.6675L22.5825 28.665ZM20.1875 13.715C20.9175 9.86001 23.975 6.73001 27.7925 5.92501C30.885 5.27001 33.9025 5.98001 36.2925 7.91751C38.6475 9.82751 40 12.66 40 15.69C40 19.25 38.055 22.5625 34.925 24.3325C33.925 24.8975 33.12 25.7225 32.5 26.6925V17.9225C33.5 17.3925 34.335 16.5925 34.8375 15.575C35.3825 14.475 34.48 13.19 33.2525 13.19H26.7475C25.52 13.19 24.6175 14.475 25.1625 15.575C25.665 16.5925 26.5 17.3925 27.5 17.9225V26.7075C26.8775 25.7325 26.0625 24.8925 25.0525 24.32C21.2825 22.175 19.375 18.015 20.1875 13.715Z" fill="#3035C4"/>
</g>
<defs>
<clipPath id="clip0_10716_8004">
<rect width="60" height="60" fill="white" transform="translate(0 0.689941)"/>
</clipPath>
</defs>
</svg>
