<svg width="101" height="100" viewBox="0 0 101 100" fill="none" xmlns="http://www.w3.org/2000/svg">
<path d="M75.3346 87.5001H29.5013V33.3334L58.668 4.16675L63.8763 9.37508C64.3624 9.86119 64.7617 10.5209 65.0742 11.3542C65.3867 12.1876 65.543 12.9862 65.543 13.7501V15.2084L60.9596 33.3334H87.8346C90.0569 33.3334 92.0013 34.1667 93.668 35.8334C95.3346 37.5001 96.168 39.4445 96.168 41.6667V50.0001C96.168 50.4862 96.0985 51.007 95.9596 51.5626C95.8207 52.1181 95.6819 52.639 95.543 53.1251L83.043 82.5001C82.418 83.889 81.3763 85.0695 79.918 86.0418C78.4596 87.014 76.9319 87.5001 75.3346 87.5001ZM37.8346 79.1667H75.3346L87.8346 50.0001V41.6667H50.3346L55.9596 18.7501L37.8346 36.8751V79.1667ZM29.5013 33.3334V41.6667H17.0013V79.1667H29.5013V87.5001H8.66797V33.3334H29.5013Z" fill="white"/>
</svg>
