<svg width="105" height="15" viewBox="0 0 105 15" fill="none" xmlns="http://www.w3.org/2000/svg">
<path d="M8.6875 0.244141L10.4345 5.62085L16.0879 5.62085L11.5142 8.94384L13.2612 14.3206L8.6875 10.9976L4.1138 14.3206L5.8608 8.94384L1.28709 5.62085L6.9405 5.62085L8.6875 0.244141Z" fill="#F3C009"/>
<path d="M29.4375 0.244141L31.1845 5.62085L36.8379 5.62085L32.2642 8.94384L34.0112 14.3206L29.4375 10.9976L24.8638 14.3206L26.6108 8.94384L22.0371 5.62085L27.6905 5.62085L29.4375 0.244141Z" fill="#F3C009"/>
<path d="M50.1875 0.244141L51.9345 5.62085L57.5879 5.62085L53.0142 8.94384L54.7612 14.3206L50.1875 10.9976L45.6138 14.3206L47.3608 8.94384L42.7871 5.62085L48.4405 5.62085L50.1875 0.244141Z" fill="#F3C009"/>
<path d="M70.9375 0.244141L72.6845 5.62085L78.3379 5.62085L73.7642 8.94384L75.5112 14.3206L70.9375 10.9976L66.3638 14.3206L68.1108 8.94384L63.5371 5.62085L69.1905 5.62085L70.9375 0.244141Z" fill="#F3C009"/>
<path d="M91.6875 0.244141L93.4345 5.62085L99.0879 5.62085L94.5142 8.94384L96.2612 14.3206L91.6875 10.9976L87.1138 14.3206L88.8608 8.94384L84.2871 5.62085L89.9405 5.62085L91.6875 0.244141Z" fill="#F3C009"/>
</svg>
